<?xml version="1.0" encoding="UTF-8" standalone="no"?>
<!-- Created with Inkscape (http://www.inkscape.org/) -->

<svg
   xmlns:dc="http://purl.org/dc/elements/1.1/"
   xmlns:cc="http://creativecommons.org/ns#"
   xmlns:rdf="http://www.w3.org/1999/02/22-rdf-syntax-ns#"
   xmlns:svg="http://www.w3.org/2000/svg"
   xmlns="http://www.w3.org/2000/svg"
   xmlns:xlink="http://www.w3.org/1999/xlink"
   xmlns:sodipodi="http://sodipodi.sourceforge.net/DTD/sodipodi-0.dtd"
   xmlns:inkscape="http://www.inkscape.org/namespaces/inkscape"
   id="svg3004"
   version="1.1"
   inkscape:version="0.48.3.1 r9886"
   width="743.75"
   height="1052.5"
   xml:space="preserve"
   sodipodi:docname="A4.svg"><metadata
     id="metadata3010"><rdf:RDF><cc:Work
         rdf:about=""><dc:format>image/svg+xml</dc:format><dc:type
           rdf:resource="http://purl.org/dc/dcmitype/StillImage" /></cc:Work></rdf:RDF></metadata><defs
     id="defs3008"><pattern
   id="pattern4341"
   patternTransform="translate(819.82326,574.23696)"
   height="509.14984"
   width="585.73014"
   patternUnits="userSpaceOnUse"><path
     style="fill:#000000"
     d="m 29.011432,499.22114 c 1.68571,-25.7227 12.74391,-50.0983 31.0175,-68.3719 8.58029,-8.58031 15.9708,-13.91131 29.52622,-21.29811 24.488428,-13.3445 34.782128,-23.5702 42.077128,-41.7991 2.9,-7.2467 7.0268,-25.0404 7.0526,-30.4091 0.027,-5.6599 1.0022,-7.3429 4.2542,-7.3429 l 3.0345,0 -0.6064,21.75 c -0.8907,31.9494 -3.5043,46.5461 -11.2474,62.8167 -7.4201,15.59171 -15.461,22.45671 -45.039838,38.45301 -22.37055,12.098 -29.37239,16.8389 -39.02372,26.4223 -8.96874,8.9057 -12.98756,15.6617 -14.14816,23.7842 -0.72755,5.0918 -0.87074,5.285 -4.15042,5.5987 l -3.39688,0.3249 0.65067,-9.9287 z m 31.65979,-37.718 c 5.225,-3.4689 16.025,-9.7808 24,-14.0266 24.406658,-12.9938 33.115958,-19.6361 40.616458,-30.97651 5.7053,-8.6263 10.0152,-22.6335 11.846,-38.5 l 0.6347,-5.5 -3.4687,6.3041 c -8.9677,16.298 -17.8268,24.2139 -41.548508,37.125 -6.28103,3.4186 -13.93103,8.1577 -17,10.53131 -8.39459,6.4925 -19.20596,18.1256 -24.6649,26.5396 -4.52549,6.9752 -11.35981,21.8406 -11.39823,24.7923 -0.009,0.7108 2.57068,-1.2445 5.73318,-4.345 3.1625,-3.1005 10.025,-8.4754 15.25,-11.9442 z m -31.67165,-17.7531 c 1.11772,-19.82411 6.37363,-35.65771 16.09485,-48.48631 8.98023,-11.8508 19.53092,-19.2447 47.22787,-33.0971 20.569388,-10.2876 24.804188,-13.7562 32.282488,-26.4416 4.3048,-7.3022 4.4937,-7.472 7.2433,-6.5135 3.6703,1.2795 3.6552,3.2803 -0.1381,18.3005 -4.8122,19.0539 -11.4266,30.8165 -21.7474,38.6741 -2.663,2.0273 -11.805378,7.3645 -20.316538,11.8603 -20.40522,10.7785 -30.9466,17.8123 -39.55688,26.3945 -9.88029,9.84821 -12.30673,14.37051 -14.92106,27.80911 -0.44767,2.3012 -1.04644,2.75 -3.66891,2.75 l -3.13392,0 0.6343,-11.25 z m 30.74984,-36.48761 c 4.168,-2.8003 14.518,-8.7944 23,-13.3201 19.099128,-10.1908 22.161408,-12.2736 29.160668,-19.8336 4.2075,-4.5446 6.3497,-8.0118 8.6742,-14.0396 1.6978,-4.4025 3.0869,-8.3881 3.0869,-8.8568 0,-0.4686 -2.0372,1.0451 -4.5272,3.3638 -2.9836,2.7785 -11.0238,7.4827 -23.580538,13.7967 -23.19845,11.665 -31.35728,16.927 -40.1322,25.883 -5.03308,5.137 -7.87661,9.2046 -11.22814,16.0617 -2.46848,5.0503 -4.78748,10.5325 -5.15333,12.1825 -0.62038,2.7979 -0.20096,2.5573 6.22814,-3.5731 3.79132,-3.6151 10.30349,-8.8642 14.4715,-11.6645 z m -23.56141,-64.0124 c -0.38346,-0.9625 -8.49101,-22.675 -18.01678,-48.25 -9.5257701,-25.575 -17.6333201,-47.2875 -18.0167801,-48.25 -0.6407,-1.6082 0.27544,-1.75 11.3057401,-1.75 l 12.00294,0 3.94578,11.25 c 2.17018,6.1875 6.57188,19.0125 9.78156,28.5 3.20968,9.4875 6.14075,17.25 6.51348,17.25 0.37273,0 5.85468,-12.7125 12.1821,-28.25 l 11.5044,-28.25 4.28689,0 4.28689,0 12.06955,28.75 c 6.63824,15.8125 12.309818,28.7441 12.603488,28.737 0.29368,-0.01 5.20968,-13.0571 10.92442,-29 l 10.3905,-28.987 11.3449,0 11.345,0 -1.8584,4.75 c -1.022,2.6125 -9.4118,25.1125 -18.644,50 l -16.7857,45.25 -4.18358,0 -4.183598,0 -13.08687,-29.25 c -7.19777,-16.0875 -13.43333,-29.25 -13.85681,-29.25 -0.42347,0 -6.59724,13.1625 -13.7195,29.25 l -12.94954,29.25 -4.24444,0 c -3.11006,0 -4.43078,-0.4677 -4.94164,-1.75 z m 148.747738,0.2084 c -12.20846,-3.2879 -22.91106,-12.0761 -27.85316,-22.871 -5.5396,-12.1002 -6.8727,-28.5536 -3.4104,-42.0913 2.2565,-8.8227 5.485,-14.8983 11.2273,-21.1279 12.6757,-13.7516 34.15676,-17.8083 54.33036,-10.2604 7.7833,2.9121 16.4634,11.2139 20.8107,19.9038 8.1444,16.2796 7.3476,41.851 -1.7898,57.4429 -3.0365,5.1813 -11.0349,12.7168 -16.407,15.4575 -9.7523,4.9752 -25.8567,6.5226 -36.908,3.5464 z m 24.2354,-19.7467 c 5.0158,-2.8281 9.996,-10.1344 11.4137,-16.7447 1.6258,-7.5809 1.3354,-21.448 -0.593,-28.3211 -5.8856,-20.9761 -32.6147,-22.5191 -41.35806,-2.3876 -3.1328,7.2133 -3.8804,22.6063 -1.542,31.748 3.23746,12.6569 9.65776,18.0052 21.57936,17.9764 4.8755,-0.012 7.4998,-0.5793 10.5,-2.271 z m 170.2345,20.2554 c -6.2162,-1.5556 -11.2641,-4.6259 -15.4799,-9.4153 -4.8592,-5.5203 -6.7941,-11.6962 -6.6349,-21.1773 0.1362,-8.1109 2.9776,-15.5683 8.1962,-21.5121 3.3901,-3.8611 12.3417,-9.0218 18.6841,-10.7718 7.1897,-1.9836 21.7158,-3.1877 26.8403,-2.2247 l 4.8402,0.9096 -0.6422,-3.6378 c -0.9137,-5.1758 -3.4296,-8.2807 -8.9519,-11.0476 -4.1015,-2.0551 -6.1683,-2.3962 -14.0366,-2.3165 -6.1669,0.062 -11.071,0.7159 -14.787,1.9705 l -5.5599,1.877 -2.115,-8.0606 c -1.1632,-4.4333 -2.1088,-8.5408 -2.1014,-9.1279 0.019,-1.5295 9.3143,-4.2467 18.9739,-5.5467 15.8657,-2.1352 32.9134,1.7926 40.8773,9.4182 8.3664,8.0111 10.188,15.8664 11.0601,47.6959 0.6392,23.3271 0.8842,25.8834 2.8756,30 1.1973,2.475 2.7452,5.2826 3.4398,6.2392 1.0747,1.4799 0.8514,2.1508 -1.4978,4.5 -2.4826,2.4826 -3.4583,2.7608 -9.6826,2.7608 -6.5326,0 -7.1211,-0.1933 -10.4698,-3.439 -1.9515,-1.8915 -3.8202,-4.2962 -4.1528,-5.344 -0.5681,-1.79 -0.7646,-1.7519 -3.2574,0.6325 -1.459,1.3956 -5.3528,3.779 -8.6528,5.2964 -4.9103,2.258 -7.6345,2.8049 -15,3.0113 -4.95,0.1387 -10.6945,-0.1718 -12.7655,-0.6901 z m 23.7186,-18.0758 c 2.1742,-0.6036 5.3903,-2.5347 7.1469,-4.2913 3.8641,-3.8641 5.387,-8.8906 5.3945,-17.8047 l 0.01,-6.7047 -3.6256,-0.6802 c -6.3373,-1.1888 -18.2165,0.2411 -23.2565,2.7995 -7.8588,3.9893 -11.1372,13.2418 -7.3664,20.7901 3.1081,6.2216 11.9076,8.6104 21.7015,5.8913 z m -145.4182,13.3587 c 0.031,-3.3398 2.9414,-7.5788 26.6037,-38.75 l 26.5688,-35 -26.1037,-0.2666 -26.1037,-0.2666 0,-9.9834 0,-9.9834 43,0 43,0 -0.052,4.25 c -0.048,3.9514 -1.8335,6.6736 -25.4121,38.75 l -25.3601,34.5 25.4121,0.2669 25.4121,0.2668 0,9.9832 0,9.9831 -43.5,0 -43.5,0 0.035,-3.75 z m 211.9651,-35.75 0,-39.5 -6.5,0 -6.5,0 0,-9.5 0,-9.5 18,0 18,0 0,49 0,49 -11.5,0 -11.5,0 0,-39.5 z m 50,-9.5 0,-49 11.5,0 11.5,0 0,4.0509 0,4.0509 3.3051,-2.5209 c 6.9712,-5.3173 12.4523,-6.994 22.6949,-6.9426 6.4369,0.032 10.7187,0.5694 13.2795,1.6659 l 3.7795,1.6184 -4.645,9.2887 c -2.5547,5.1088 -4.7489,9.4071 -4.8759,9.5518 -0.127,0.1447 -1.9507,-0.4554 -4.0525,-1.3336 -4.9059,-2.0498 -13.2524,-2.1226 -17.0344,-0.1485 -4.1928,2.1885 -8.0075,6.4994 -10.3703,11.719 -1.9081,4.2153 -2.0383,6.4767 -2.0589,35.75 l -0.022,31.25 -11.5,0 -11.5,0 0,-49 z m -43.98,-61.7516 c -10.4751,-5.2628 -10.3761,-18.3509 0.1804,-23.8434 6.1138,-3.1811 13.708,-0.1254 17.1528,6.9017 3.2179,6.5645 0.069,14.3654 -6.9889,17.3145 -4.3168,1.8036 -6.1435,1.7378 -10.3443,-0.3728 z m -310.55376,-5.6495 c -1.878,-1.3732 -1.8694,-1.5177 0.4316,-7.25 5.4824,-13.6579 15.08606,-27.0764 24.42506,-34.1274 12.6251,-9.5321 25.0708,-14.7605 57.2558,-24.053 29.7199,-8.5808 26.4213,-6.4321 26.4213,-17.21117 0,-8.19159 -0.1733,-9.04037 -1.75,-8.56954 -0.9625,0.28742 -9.4828,2.78563 -18.9341,5.55157 -35.605,10.41986 -54.8949,20.52424 -70.636,37.00024 -10.94576,11.4568 -17.73846,24.2185 -21.31076,40.0369 -1.571,6.9569 -1.6173,7.0235 -4.8827,7.0235 l -3.2967,0 0.4352,-6.25 c 3.0948,-44.4412 9.9633,-65.6755 27.13006,-83.87319 14.8211,-15.71114 32.6841,-24.52593 75.6365,-37.32403 l 17.1085,-5.09765 0.26,-46.22758 0.26,-46.22758 78.49,0 78.49,0 0,108.5 0,108.50003 -78.5,0 -78.5,0 0,-14 c 0,-16.1439 0.9224,-15.1397 -11,-11.9748 -4.125,1.0951 -16.95,4.2455 -28.5,7.001 -37.8446,9.0287 -46.9349,12.7078 -58.61586,23.7238 -3.645,3.4375 -7.049,6.25 -7.5645,6.25 -0.5155,0 -1.7996,-0.6305 -2.8534,-1.4011 z M 424.67114,109 l 0,-102 -72.5,0 -72.5,0 0,41.44614 0,41.44614 5.25,-1.83128 c 30.7995,-10.74331 52.7587,-24.54208 59.3762,-37.311 l 1.4252,-2.75 -25.0257,0 -25.0257,0 0,-12.5 0,-12.5 56.5,0 56.5,0 0,12.5 0,12.5 -26.4809,0 -26.481,0 -0.4019,2.25 c -3.8344,21.46537 -6.6861,30.23444 -13.086,40.23905 l -3.5088,5.48508 34.7293,0.26294 34.7293,0.26293 0.2808,12.25 0.2808,12.25 -27.0308,0 c -22.9325,0 -27.0308,0.2196 -27.0308,1.44838 0,0.79661 -1.1202,4.99439 -2.4893,9.32841 -4.0204,12.72692 -12.2811,24.12254 -23.7194,32.72084 l -5.9607,4.4808 42.8347,0.2608 42.8347,0.2608 0.2808,12.25 0.2808,12.25 -56.5308,0 -56.5308,0 0,-6 c 0,-3.3 -0.3623,-6 -0.8052,-6 -0.4428,0 -3.9303,1.0534 -7.75,2.341 l -6.9448,2.341 -0.2807,12.159 -0.2808,12.159 72.5308,0 72.5307,0 0,-102.00003 z m -238,96.33273 c 9.1468,-4.4571 19.2771,-7.5305 43.9773,-13.3426 54.6844,-12.8674 76.7245,-20.7015 93.4232,-33.2071 10.3242,-7.73165 19.6138,-20.8423 21.9987,-31.04719 0.6182,-2.64491 0.3754,-2.54514 -5.6266,2.3126 -7.7681,6.28715 -31.7318,18.20375 -49.163,24.44769 -7.0898,2.5395 -24.2371,7.9624 -38.1052,12.0509 -13.8681,4.0885 -28.219,8.5644 -31.8908,9.9465 -15.2778,5.7505 -29.0499,14.4276 -35.1616,22.1534 -4.7417,5.9941 -7.87766,10.67 -6.86906,10.2421 0.5044,-0.214 3.84206,-1.8143 7.41706,-3.5563 z m -7.42836,-34.6717 c 8.68806,-8.5759 20.19406,-16.294 33.56156,-22.51269 12.7752,-5.94315 20.4838,-8.66645 42.8668,-15.14399 38.1369,-11.03662 54.5696,-18.76363 68.8674,-32.383 9.9886,-9.51466 16.1696,-19.90472 20.4841,-34.43321 l 1.5766,-5.30877 -6.8238,6.31032 c -3.753,3.47067 -10.208,8.24276 -14.3443,10.60463 -16.701,9.53651 -26.378,13.14704 -84.9367,31.69025 -36.0703,11.422 -56.5707,26.20679 -67.77246,48.87716 -4.3617,8.8273 -10.0445,27.2148 -10.0495,32.5166 -7e-4,0.758 2.1684,-1.942 4.8203,-6 2.6518,-4.0581 7.9393,-10.4559 11.75,-14.2173 z m 222.42836,11.339 0,-6 -46.3507,0 c -31.075,0 -47.3887,0.3618 -49.5,1.0978 -2.9548,1.03 -3.1493,1.4006 -3.1493,6 l 0,4.9022 49.5,0 49.5,0 0,-6 z m -100.5,-38.96956 c 11.1779,-4.47695 26.1831,-12.31767 33.1323,-17.31273 l 5.8677,-4.21774 -15.7284,-0.27528 c -15.6003,-0.27304 -15.7754,-0.25172 -21.5,2.61725 -3.1744,1.59089 -9.7091,4.37961 -14.5216,6.19715 l -8.75,3.30462 0,8.76856 0,8.76855 6.75,-2.32312 c 3.7125,-1.27772 10.35,-3.76499 14.75,-5.52726 z m 45.9744,-30.98081 c 0.8391,-1.62269 1.5256,-3.64769 1.5256,-4.5 0,-1.11145 1.0141,-1.54966 3.586,-1.54966 l 3.586,0 -0.336,4.25 -0.336,4.25 23.25,0.26843 23.25,0.26843 0,-6.01843 0,-6.01843 -34.1386,0 -34.1387,0 -6.8613,5.61346 c -3.7738,3.0874 -6.8614,5.7874 -6.8614,6 0,0.2126 5.8385,0.38654 12.9744,0.38654 l 12.9743,0 1.5257,-2.95034 z m 1.339,-73.79966 c 0.2869,-2.97542 0.6037,-3.25 3.75,-3.25 3.2609,0 3.4366,0.17896 3.4366,3.5 l 0,3.5 23,0 23,0 0,-6.5 0,-6.5 -49.5,0 -49.5,0 0,6.51877 0,6.51878 22.75,-0.26878 22.75,-0.26877 0.3134,-3.25 z"
     id="path4339" /></pattern><pattern
   id="pattern3616"
   patternTransform="translate(726.79843,549.24118)"
   height="509.14985"
   width="585.73015"
   patternUnits="userSpaceOnUse"><rect
     transform="translate(-857.58385,-561.59885)"
     style="color:#000000;fill:#a9adbc;fill-opacity:1;fill-rule:nonzero;stroke:#ff0000;stroke-width:2.25263309;stroke-linecap:butt;stroke-linejoin:miter;stroke-miterlimit:4;stroke-opacity:1;stroke-dasharray:none;stroke-dashoffset:0;marker:none;visibility:visible;display:inline;overflow:visible;enable-background:accumulate"
     id="rect2832"
     width="665.7757"
     height="591.54291"
     x="817.5611"
     y="520.40234"
     ry="0.94300961"
     clip-path="url(#clipPath3610)" /></pattern><clipPath
   id="clipPath3610"
   clipPathUnits="userSpaceOnUse"><path
     id="path3612"
     d="m 886.59528,1060.82 c 1.68571,-25.7227 12.74391,-50.0983 31.0175,-68.37189 8.58029,-8.5803 15.9708,-13.9113 29.52622,-21.2981 24.48839,-13.3445 34.78212,-23.5703 42.07712,-41.7992 2.9001,-7.2466 7.0268,-25.04029 7.0526,-30.40904 0.027,-5.6599 1.0023,-7.34292 4.25418,-7.34292 l 3.0345,0 -0.6063,21.74996 c -0.8908,31.9495 -3.50428,46.5462 -11.24748,62.8168 -7.4201,15.5917 -15.46097,22.4567 -45.03983,38.45299 -22.37055,12.098 -29.37239,16.8389 -39.02372,26.4223 -8.96874,8.9057 -12.98756,15.6617 -14.14816,23.7842 -0.72755,5.0918 -0.87074,5.285 -4.15042,5.5987 l -3.39688,0.3249 0.65067,-9.9287 z m 31.65979,-37.718 c 5.225,-3.4689 16.025,-9.7808 24,-14.0266 24.40662,-12.99379 33.11599,-19.63609 40.61645,-30.97649 5.7054,-8.6263 10.0152,-22.6335 11.8461,-38.5001 l 0.6346,-5.5 -3.4687,6.3042 c -8.9677,16.298 -17.82679,24.2139 -41.5485,37.125 -6.28103,3.4186 -13.93103,8.1577 -17,10.5313 -8.39459,6.4925 -19.20596,18.12559 -24.6649,26.53959 -4.52549,6.9752 -11.35981,21.8406 -11.39823,24.7923 -0.009,0.7108 2.57068,-1.2445 5.73318,-4.345 3.1625,-3.1005 10.025,-8.4754 15.25,-11.9442 z m -31.67165,-17.7531 c 1.11772,-19.82409 6.37363,-35.65769 16.09485,-48.48629 8.98023,-11.8508 19.53092,-19.2447 47.22787,-33.0971 20.56942,-10.2877 24.80419,-13.7562 32.28248,-26.44162 4.3048,-7.30222 4.4937,-7.47206 7.2433,-6.51356 3.6704,1.27951 3.6553,3.28036 -0.1381,18.30048 -4.8121,19.0539 -11.42657,30.8166 -21.74743,38.6742 -2.66292,2.0273 -11.80534,7.3644 -20.3165,11.8602 -20.40522,10.7786 -30.9466,17.8124 -39.55688,26.3946 -9.88029,9.8482 -12.30673,14.37049 -14.92106,27.80909 -0.44767,2.3012 -1.04644,2.75 -3.66891,2.75 l -3.13392,0 0.6343,-11.25 z m 30.74984,-36.48759 c 4.168,-2.8003 14.518,-8.7944 23,-13.3202 19.09913,-10.1907 22.16141,-12.2735 29.16071,-19.8336 4.20749,-4.5446 6.34962,-8.0117 8.67425,-14.0395 1.6977,-4.4026 3.0869,-8.3881 3.0869,-8.8568 0,-0.4687 -2.0373,1.045 -4.52727,3.3638 -2.98358,2.7785 -11.02384,7.4827 -23.58056,13.7967 -23.19845,11.665 -31.35728,16.927 -40.1322,25.883 -5.03308,5.137 -7.87661,9.2046 -11.22814,16.0617 -2.46848,5.0503 -4.78748,10.5325 -5.15333,12.1825 -0.62038,2.7979 -0.20096,2.5573 6.22814,-3.5731 3.79132,-3.6151 10.30349,-8.8642 14.4715,-11.6645 z m -23.56141,-64.01246 c -0.38346,-0.9625 -8.49101,-22.675 -18.01678,-48.25 -9.52577,-25.575 -17.63332,-47.2875 -18.01678,-48.25 -0.6407,-1.60819 0.27544,-1.75 11.30574,-1.75 l 12.00294,0 3.94578,11.25 c 2.17018,6.1875 6.57188,19.0125 9.78156,28.5 3.20968,9.4875 6.14075,17.25 6.51348,17.25 0.37273,0 5.85468,-12.7125 12.1821,-28.25 l 11.5044,-28.25 4.28689,0 4.28689,0 12.06955,28.75 c 6.63824,15.8125 12.30982,28.74416 12.60349,28.73702 0.29368,-0.007 5.20968,-13.05713 10.92444,-29 l 10.39047,-28.98702 11.3449,0 11.34498,0 -1.8583,4.75 c -1.02208,2.6125 -9.41188,25.1125 -18.64408,50 l -16.78566,45.24996 -4.18361,0 -4.1836,0 -13.08687,-29.24996 c -7.19777,-16.0875 -13.43333,-29.25 -13.85681,-29.25 -0.42347,0 -6.59724,13.1625 -13.7195,29.25 l -12.94954,29.24996 -4.24444,0 c -3.11006,0 -4.43078,-0.46767 -4.94164,-1.74996 z m 148.74775,0.20841 c -12.2085,-3.28789 -22.9111,-12.07611 -27.8531,-22.87097 -5.5397,-12.10017 -6.8728,-28.55362 -3.4105,-42.09131 2.2565,-8.82274 5.485,-14.89831 11.2273,-21.12791 12.6757,-13.75158 34.1568,-17.80831 54.3304,-10.2604 7.7833,2.91212 16.4634,11.21387 20.8108,19.90376 8.1443,16.27964 7.3475,41.85102 -1.7899,57.44292 -3.0365,5.18131 -11.0348,12.7168 -16.407,15.45748 -9.7523,4.97528 -25.8567,6.52268 -36.908,3.54643 z m 24.2355,-19.74667 c 5.0158,-2.82813 9.996,-10.13444 11.4136,-16.74469 1.6258,-7.58095 1.3355,-21.44805 -0.593,-28.32109 -5.8856,-20.9761 -32.6147,-22.51917 -41.358,-2.3876 -3.1328,7.21327 -3.8805,22.60622 -1.5421,31.74798 3.2376,12.65684 9.6578,18.00515 21.5795,17.97642 4.8754,-0.0118 7.4997,-0.57934 10.5,-2.27102 z m 170.2344,20.25538 c -6.2162,-1.5556 -11.2641,-4.62585 -15.4799,-9.41526 -4.8592,-5.52034 -6.7941,-11.69628 -6.6349,-21.17732 0.1363,-8.11088 2.9776,-15.56835 8.1962,-21.51207 3.3901,-3.8611 12.3417,-9.02189 18.6842,-10.77181 7.1896,-1.98368 21.7158,-3.18773 26.8402,-2.22474 l 4.8402,0.90958 -0.6422,-3.63775 c -0.9137,-5.17579 -3.4296,-8.2807 -8.9519,-11.04767 -4.1015,-2.05508 -6.1683,-2.39615 -14.0366,-2.31648 -6.1668,0.0625 -11.0709,0.71596 -14.7869,1.97048 l -5.56,1.87703 -2.1149,-8.06055 c -1.1632,-4.43331 -2.1089,-8.54088 -2.1015,-9.12794 0.019,-1.52952 9.3143,-4.24673 18.9739,-5.54672 15.8658,-2.13519 32.9134,1.79263 40.8773,9.41824 8.3664,8.01108 10.188,15.86639 11.0602,47.69586 0.6391,23.32715 0.8842,25.88344 2.8755,30 1.1973,2.475 2.7452,5.28264 3.4398,6.2392 1.0747,1.4799 0.8514,2.15082 -1.4978,4.5 -2.4826,2.48259 -3.4583,2.7608 -9.6825,2.7608 -6.5327,0 -7.1212,-0.1933 -10.4699,-3.43899 -1.9515,-1.89144 -3.8202,-4.29623 -4.1527,-5.34396 -0.5682,-1.79006 -0.7647,-1.75191 -3.2575,0.63245 -1.459,1.39559 -5.3527,3.779 -8.6527,5.29647 -4.9104,2.25797 -7.6345,2.80484 -15,3.01125 -4.95,0.13874 -10.6945,-0.17183 -12.7656,-0.6901 z m 23.7186,-18.07577 c 2.1742,-0.60363 5.3903,-2.53473 7.147,-4.29135 3.8641,-3.8641 5.387,-8.89057 5.3944,-17.80469 l 0.01,-6.70468 -3.6256,-0.68016 c -6.3373,-1.18889 -18.2165,0.24103 -23.2565,2.79944 -7.8588,3.9893 -11.1372,13.2418 -7.3664,20.79009 3.1081,6.22164 11.9076,8.61046 21.7016,5.89135 z M 1115.29,900.84885 c 0.031,-3.33978 2.9413,-7.57876 26.6037,-38.75 l 26.5687,-35 -26.1036,-0.2666 -26.1037,-0.26661 0,-9.98339 0,-9.9834 43,0 43,0 -0.052,4.25 c -0.048,3.95144 -1.8336,6.67363 -25.4122,38.75 l -25.3601,34.5 25.4121,0.26688 25.4121,0.26688 0,9.98312 0,9.98312 -43.5,0 -43.5,0 0.035,-3.75 z m 211.9651,-35.75 0,-39.5 -6.5,0 -6.5,0 0,-9.5 0,-9.5 18,0 18,0 0,49 0,49 -11.5,0 -11.5,0 0,-39.5 z m 50,-9.5 0,-49 11.5,0 11.5,0 0,4.05089 0,4.05089 3.305,-2.52089 c 6.9712,-5.31722 12.4523,-6.99392 22.695,-6.94256 6.4368,0.0323 10.7186,0.56943 13.2794,1.66594 l 3.7795,1.61831 -4.6449,9.28871 c -2.5548,5.10879 -4.7489,9.40712 -4.876,9.55184 -0.127,0.14472 -1.9507,-0.45541 -4.0525,-1.33362 -4.9059,-2.04982 -13.2524,-2.12259 -17.0343,-0.14851 -4.1929,2.18855 -8.0076,6.49939 -10.3703,11.719 -1.9082,4.21535 -2.0384,6.47671 -2.059,35.75 l -0.022,31.25 -11.5,0 -11.5,0 0,-49 z M 1333.275,793.8473 c -10.4751,-5.26286 -10.3761,-18.35095 0.1804,-23.84346 6.1138,-3.18103 13.7081,-0.12538 17.1528,6.90169 3.218,6.5645 0.069,14.36544 -6.9889,17.3145 -4.3168,1.80365 -6.1435,1.73782 -10.3443,-0.37273 z m -310.5538,-5.64956 c -1.878,-1.37319 -1.8694,-1.51765 0.4317,-7.25 5.4823,-13.65784 15.086,-27.07641 24.425,-34.12741 12.6251,-9.53204 25.0708,-14.76043 57.2559,-24.05298 29.7198,-8.5808 26.4213,-6.43207 26.4213,-17.21114 0,-8.19159 -0.1734,-9.04037 -1.75,-8.56954 -0.9625,0.28742 -9.4829,2.78563 -18.9342,5.55157 -35.6049,10.41986 -54.8949,20.52425 -70.636,37.00025 -10.9458,11.45683 -17.7385,24.21845 -21.3108,40.03693 -1.571,6.95685 -1.6173,7.02343 -4.8827,7.02343 l -3.2967,0 0.4352,-6.25 c 3.0948,-44.44114 9.9634,-65.67547 27.1302,-83.87316 14.821,-15.71114 32.6841,-24.52593 75.6364,-37.32403 l 17.1086,-5.09765 0.2599,-46.22758 0.26,-46.22758 78.49,0 78.4901,0 0,108.5 0,108.5 -78.5,0 -78.5,0 0,-14 c 0,-16.14384 0.9224,-15.13971 -11,-11.97475 -4.125,1.09504 -16.95,4.24549 -28.5,7.00099 -37.8447,9.02866 -46.935,12.70778 -58.6159,23.72376 -3.6451,3.4375 -7.0491,6.25 -7.5646,6.25 -0.5155,0 -1.7995,-0.6305 -2.8534,-1.40111 z m 259.5339,-117.59889 0,-102 -72.5,0 -72.5,0 0,41.44614 0,41.44614 5.25,-1.83128 c 30.7994,-10.74331 52.7586,-24.54208 59.3761,-37.311 l 1.4252,-2.75 -25.0257,0 -25.0256,0 0,-12.5 0,-12.5 56.5,0 56.5,0 0,12.5 0,12.5 -26.481,0 -26.4809,0 -0.402,2.25 c -3.8344,21.46537 -6.6861,30.23444 -13.086,40.23905 l -3.5088,5.48508 34.7294,0.26294 34.7293,0.26293 0.2807,12.25 0.2808,12.25 -27.0308,0 c -22.9325,0 -27.0307,0.2196 -27.0307,1.44838 0,0.79661 -1.1202,4.99439 -2.4893,9.32841 -4.0205,12.72692 -12.2812,24.12256 -23.7194,32.72085 l -5.9608,4.48076 42.8347,0.2608 42.8348,0.2608 0.2807,12.25 0.2808,12.25 -56.5308,0 -56.5307,0 0,-6 c 0,-3.3 -0.3624,-6 -0.8053,-6 -0.4428,0 -3.9303,1.05346 -7.75,2.34102 l -6.9447,2.34103 -0.2808,12.15897 -0.2808,12.15898 72.5308,0 72.5308,0 0,-102 z m -238,96.3327 c 9.1468,-4.45703 19.277,-7.53052 43.9772,-13.34256 54.6845,-12.86745 76.7245,-20.70155 93.4232,-33.20708 10.3242,-7.73168 19.6138,-20.84233 21.9988,-31.04722 0.6181,-2.64491 0.3754,-2.54514 -5.6266,2.3126 -7.7682,6.28715 -31.7319,18.20375 -49.1631,24.44764 -7.0898,2.53956 -24.2371,7.96249 -38.1052,12.05095 -13.8681,4.08847 -28.2189,8.56437 -31.8908,9.94645 -15.2777,5.75053 -29.0499,14.42764 -35.1616,22.15348 -4.7417,5.99411 -7.8777,10.66993 -6.869,10.24207 0.5044,-0.21397 3.8421,-1.81431 7.4171,-3.55633 z m -7.4285,-34.67169 c 8.6881,-8.57591 20.1941,-16.29398 33.5616,-22.51267 12.7752,-5.94315 20.4838,-8.66645 42.8669,-15.14399 38.1368,-11.03662 54.5695,-18.76363 68.8673,-32.383 9.9887,-9.51466 16.1696,-19.90472 20.4841,-34.43321 l 1.5766,-5.30877 -6.8238,6.31032 c -3.753,3.47067 -10.208,8.24276 -14.3442,10.60463 -16.701,9.53651 -26.3781,13.14704 -84.9368,31.69025 -36.0703,11.422 -56.5707,26.20679 -67.7725,48.8772 -4.3617,8.8273 -10.0445,27.21471 -10.0495,32.51654 -7e-4,0.75806 2.1685,-1.94194 4.8203,-6 2.6519,-4.05807 7.9394,-10.45586 11.75,-14.2173 z m 222.4285,11.33899 0,-6 -46.3508,0 c -31.075,0 -47.3887,0.36181 -49.5,1.09783 -2.9547,1.03002 -3.1492,1.40058 -3.1492,6 l 0,4.90217 49.5,0 49.5,0 0,-6 z m -100.5,-38.96953 c 11.1779,-4.47695 26.1831,-12.31767 33.1322,-17.31273 l 5.8678,-4.21774 -15.7285,-0.27528 c -15.6003,-0.27304 -15.7754,-0.25172 -21.5,2.61725 -3.1743,1.59089 -9.709,4.37961 -14.5215,6.19715 l -8.75,3.30462 0,8.76856 0,8.76855 6.75,-2.32312 c 3.7125,-1.27772 10.35,-3.76499 14.75,-5.52726 z m 45.9743,-30.98081 c 0.8391,-1.62269 1.5257,-3.64769 1.5257,-4.5 0,-1.11145 1.014,-1.54966 3.5859,-1.54966 l 3.586,0 -0.336,4.25 -0.3359,4.25 23.25,0.26843 23.25,0.26843 0,-6.01843 0,-6.01843 -34.1387,0 -34.1387,0 -6.8613,5.61346 c -3.7738,3.0874 -6.8613,5.7874 -6.8613,6 0,0.2126 5.8384,0.38654 12.9743,0.38654 l 12.9743,0 1.5257,-2.95034 z m 1.339,-73.79966 c 0.2869,-2.97542 0.6037,-3.25 3.75,-3.25 3.2609,0 3.4367,0.17896 3.4367,3.5 l 0,3.5 23,0 23,0 0,-6.5 0,-6.5 -49.5,0 -49.5,0 0,6.51877 0,6.51878 22.75,-0.26878 22.75,-0.26877 0.3133,-3.25 z"
     style="fill:#000000" /></clipPath><inkscape:perspective
   sodipodi:type="inkscape:persp3d"
   inkscape:vp_x="0 : 0.5 : 1"
   inkscape:vp_y="0 : 1000 : 0"
   inkscape:vp_z="1 : 0.5 : 1"
   inkscape:persp3d-origin="0.5 : 0.33333333 : 1"
   id="perspective2824" /><inkscape:perspective
   id="perspective10"
   inkscape:persp3d-origin="372.04724 : 350.78739 : 1"
   inkscape:vp_z="744.09448 : 526.18109 : 1"
   inkscape:vp_y="0 : 1000 : 0"
   inkscape:vp_x="0 : 526.18109 : 1"
   sodipodi:type="inkscape:persp3d" /><pattern
   patternTransform="translate(678.73978,809.03283)"
   id="pattern4347"
   xlink:href="#pattern4341"
   inkscape:collect="always" />
























</defs><sodipodi:namedview
     pagecolor="#ffffff"
     bordercolor="#666666"
     borderopacity="1"
     objecttolerance="10"
     gridtolerance="10"
     guidetolerance="10"
     inkscape:pageopacity="0"
     inkscape:pageshadow="2"
     inkscape:window-width="1362"
     inkscape:window-height="729"
     id="namedview3006"
     showgrid="false"
     inkscape:zoom="1.5120522"
     inkscape:cx="371.4375"
     inkscape:cy="843.74935"
     inkscape:window-x="0"
     inkscape:window-y="37"
     inkscape:window-maximized="0"
     inkscape:current-layer="g3012" /><g
     id="g3012"
     inkscape:groupmode="layer"
     inkscape:label="A4"
     transform="matrix(1.25,0,0,-1.25,0,1052.5)">

















































<g
   id="g9115"><g
     transform="translate(334.2,109.64)"
     id="g3014"><path
       id="path3016"
       style="fill:none;stroke:#000000;stroke-width:0.47999999;stroke-linecap:round;stroke-linejoin:round;stroke-miterlimit:10;stroke-opacity:1;stroke-dasharray:none"
       d="M 0,0 11.88,0"
       inkscape:connector-curvature="0" /><g
       transform="translate(15.48,0)"
       id="g3018"><path
         id="path3020"
         style="fill:none;stroke:#000000;stroke-width:0.47999999;stroke-linecap:round;stroke-linejoin:round;stroke-miterlimit:10;stroke-opacity:1;stroke-dasharray:none"
         d="M 0,0 3.6,0"
         inkscape:connector-curvature="0" /><g
         transform="translate(7.2,0)"
         id="g3022"><path
           id="path3024"
           style="fill:none;stroke:#000000;stroke-width:0.47999999;stroke-linecap:round;stroke-linejoin:round;stroke-miterlimit:10;stroke-opacity:1;stroke-dasharray:none"
           d="M 0,0 11.88,0"
           inkscape:connector-curvature="0" /><g
           transform="translate(20.64,0)"
           id="g3026"><path
             id="path3028"
             style="fill:none;stroke:#000000;stroke-width:0.47999999;stroke-linecap:round;stroke-linejoin:round;stroke-miterlimit:10;stroke-opacity:1;stroke-dasharray:none"
             d="M 0,0 16.02,0"
             inkscape:connector-curvature="0" /><g
             transform="translate(19.62,0)"
             id="g3030"><path
               id="path3032"
               style="fill:none;stroke:#000000;stroke-width:0.47999999;stroke-linecap:round;stroke-linejoin:round;stroke-miterlimit:10;stroke-opacity:1;stroke-dasharray:none"
               d="M 0,0 3.6,0"
               inkscape:connector-curvature="0" /><g
               transform="translate(7.2,0)"
               id="g3034"><path
                 id="path3036"
                 style="fill:none;stroke:#000000;stroke-width:0.47999999;stroke-linecap:round;stroke-linejoin:round;stroke-miterlimit:10;stroke-opacity:1;stroke-dasharray:none"
                 d="M 0,0 16.08,0"
                 inkscape:connector-curvature="0" /><g
                 transform="translate(-52.86,15.6)"
                 id="g3038"><path
                   id="path3040"
                   style="fill:none;stroke:#000000;stroke-width:0.47999999;stroke-linecap:round;stroke-linejoin:round;stroke-miterlimit:10;stroke-opacity:1;stroke-dasharray:none"
                   d="M 0,0 0,-10.14"
                   inkscape:connector-curvature="0" /><g
                   transform="translate(0,-13.74)"
                   id="g3042"><path
                     id="path3044"
                     style="fill:none;stroke:#000000;stroke-width:0.47999999;stroke-linecap:round;stroke-linejoin:round;stroke-miterlimit:10;stroke-opacity:1;stroke-dasharray:none"
                     d="M 0,0 0,-3.6"
                     inkscape:connector-curvature="0" /><g
                     transform="translate(0,-7.2)"
                     id="g3046"><path
                       id="path3048"
                       style="fill:none;stroke:#000000;stroke-width:0.47999999;stroke-linecap:round;stroke-linejoin:round;stroke-miterlimit:10;stroke-opacity:1;stroke-dasharray:none"
                       d="M 0,0 0,-10.2"
                       inkscape:connector-curvature="0" /><g
                       transform="translate(214.56,600.18)"
                       id="g3050"><path
                         id="path3052"
                         style="fill:none;stroke:#000000;stroke-width:0.47999999;stroke-linecap:round;stroke-linejoin:round;stroke-miterlimit:10;stroke-opacity:1;stroke-dasharray:none"
                         d="M 0,0 14.22,0"
                         inkscape:connector-curvature="0" /><g
                         transform="translate(14.22,-283.44)"
                         id="g3054"><path
                           id="path3056"
                           style="fill:none;stroke:#000000;stroke-width:0.47999999;stroke-linecap:round;stroke-linejoin:round;stroke-miterlimit:10;stroke-opacity:1;stroke-dasharray:none"
                           d="M 0,0 -28.38,0"
                           inkscape:connector-curvature="0" /><g
                           transform="translate(0,141.72)"
                           id="g3058"><path
                             id="path3060"
                             style="fill:none;stroke:#000000;stroke-width:0.47999999;stroke-linecap:round;stroke-linejoin:round;stroke-miterlimit:10;stroke-opacity:1;stroke-dasharray:none"
                             d="M 0,0 -14.22,0"
                             inkscape:connector-curvature="0" /><g
                             transform="translate(0,-283.44)"
                             id="g3062"><path
                               id="path3064"
                               style="fill:none;stroke:#000000;stroke-width:0.47999999;stroke-linecap:round;stroke-linejoin:round;stroke-miterlimit:10;stroke-opacity:1;stroke-dasharray:none"
                               d="M 0,0 -14.22,0"
                               inkscape:connector-curvature="0" /><g
                               transform="translate(-14.22,536.94)"
                               id="g3066"><path
                                 id="path3068"
                                 style="fill:none;stroke:#000000;stroke-width:0.47999999;stroke-linecap:round;stroke-linejoin:round;stroke-miterlimit:10;stroke-opacity:1;stroke-dasharray:none"
                                 d="M 0,0 -537.84,0"
                                 inkscape:connector-curvature="0" /><g
                                 transform="translate(14.22,11.58)"
                                 id="g3070"><path
                                   id="path3072"
                                   style="fill:none;stroke:#000000;stroke-width:0.47999999;stroke-linecap:round;stroke-linejoin:round;stroke-miterlimit:10;stroke-opacity:1;stroke-dasharray:none"
                                   d="M 0,0 0,-813.6"
                                   inkscape:connector-curvature="0" /><g
                                   transform="translate(-148.86,-684.18)"
                                   id="g3074"><path
                                   id="path3076"
                                   style="fill:none;stroke:#000000;stroke-width:0.47999999;stroke-linecap:round;stroke-linejoin:round;stroke-miterlimit:10;stroke-opacity:1;stroke-dasharray:none"
                                   d="M 0,0 -381.78,0"
                                   inkscape:connector-curvature="0" /><g
                                   transform="translate(-105.36,-16.98)"
                                   id="g3078"><path
                                   id="path3080"
                                   style="fill:none;stroke:#000000;stroke-width:0.47999999;stroke-linecap:round;stroke-linejoin:round;stroke-miterlimit:10;stroke-opacity:1;stroke-dasharray:none"
                                   d="M 0,0 -276.42,0"
                                   inkscape:connector-curvature="0" /><g
                                   transform="translate(240,689.58)"
                                   id="g3082"><path
                                   id="path3084"
                                   style="fill:none;stroke:#000000;stroke-width:0.47999999;stroke-linecap:round;stroke-linejoin:round;stroke-miterlimit:10;stroke-opacity:1;stroke-dasharray:none"
                                   d="M 0,0 0,-583.74"
                                   inkscape:connector-curvature="0" /><g
                                   transform="translate(-345.84,0)"
                                   id="g3086"><path
                                   id="path3088"
                                   style="fill:none;stroke:#000000;stroke-width:0.47999999;stroke-linecap:round;stroke-linejoin:round;stroke-miterlimit:10;stroke-opacity:1;stroke-dasharray:none"
                                   d="M 0,0 0,-39.72"
                                   inkscape:connector-curvature="0" /><g
                                   transform="translate(233.16,0)"
                                   id="g3090"><path
                                   id="path3092"
                                   style="fill:none;stroke:#000000;stroke-width:0.47999999;stroke-linecap:round;stroke-linejoin:round;stroke-miterlimit:10;stroke-opacity:1;stroke-dasharray:none"
                                   d="M 0,0 0,11.58"
                                   inkscape:connector-curvature="0" /><g
                                   transform="translate(-141.72,11.58)"
                                   id="g3094"><path
                                   id="path3096"
                                   style="fill:none;stroke:#000000;stroke-width:0.47999999;stroke-linecap:round;stroke-linejoin:round;stroke-miterlimit:10;stroke-opacity:1;stroke-dasharray:none"
                                   d="M 0,0 0,-11.58"
                                   inkscape:connector-curvature="0" /><g
                                   transform="translate(-141.72,-11.58)"
                                   id="g3098"><path
                                   id="path3100"
                                   style="fill:none;stroke:#000000;stroke-width:0.47999999;stroke-linecap:round;stroke-linejoin:round;stroke-miterlimit:10;stroke-opacity:1;stroke-dasharray:none"
                                   d="M 0,0 0,11.58"
                                   inkscape:connector-curvature="0" /><g
                                   transform="translate(-141.72,-111.78)"
                                   id="g3102"><path
                                   id="path3104"
                                   style="fill:none;stroke:#000000;stroke-width:0.47999999;stroke-linecap:round;stroke-linejoin:round;stroke-miterlimit:10;stroke-opacity:1;stroke-dasharray:none"
                                   d="M 0,0 -14.16,0"
                                   inkscape:connector-curvature="0" /><g
                                   transform="translate(552.06,123.36)"
                                   id="g3106"><path
                                   id="path3108"
                                   style="fill:none;stroke:#000000;stroke-width:0.47999999;stroke-linecap:round;stroke-linejoin:round;stroke-miterlimit:10;stroke-opacity:1;stroke-dasharray:none"
                                   d="M 0,0 -566.22,0"
                                   inkscape:connector-curvature="0" /><g
                                   transform="translate(-552.06,-797.34)"
                                   id="g3110"><path
                                   id="path3112"
                                   style="fill:none;stroke:#000000;stroke-width:0.47999999;stroke-linecap:round;stroke-linejoin:round;stroke-miterlimit:10;stroke-opacity:1;stroke-dasharray:none"
                                   d="M 0,0 21.42,0"
                                   inkscape:connector-curvature="0" /><g
                                   transform="translate(21.42,-16.26)"
                                   id="g3114"><path
                                   id="path3116"
                                   style="fill:none;stroke:#000000;stroke-width:0.47999999;stroke-linecap:round;stroke-linejoin:round;stroke-miterlimit:10;stroke-opacity:1;stroke-dasharray:none"
                                   d="M 0,0 530.64,0"
                                   inkscape:connector-curvature="0" /><g
                                   transform="translate(-35.58,0)"
                                   id="g3118"><path
                                   id="path3120"
                                   style="fill:none;stroke:#000000;stroke-width:0.47999999;stroke-linecap:round;stroke-linejoin:round;stroke-miterlimit:10;stroke-opacity:1;stroke-dasharray:none"
                                   d="M 0,0 566.22,0"
                                   inkscape:connector-curvature="0" /><g
                                   transform="translate(0,406.8)"
                                   id="g3122"><path
                                   id="path3124"
                                   style="fill:none;stroke:#000000;stroke-width:0.47999999;stroke-linecap:round;stroke-linejoin:round;stroke-miterlimit:10;stroke-opacity:1;stroke-dasharray:none"
                                   d="M 0,0 28.32,0"
                                   inkscape:connector-curvature="0" /><g
                                   transform="translate(0,141.72)"
                                   id="g3126"><path
                                   id="path3128"
                                   style="fill:none;stroke:#000000;stroke-width:0.47999999;stroke-linecap:round;stroke-linejoin:round;stroke-miterlimit:10;stroke-opacity:1;stroke-dasharray:none"
                                   d="M 0,0 14.16,0"
                                   inkscape:connector-curvature="0" /><g
                                   transform="translate(0,-283.44)"
                                   id="g3130"><path
                                   id="path3132"
                                   style="fill:none;stroke:#000000;stroke-width:0.47999999;stroke-linecap:round;stroke-linejoin:round;stroke-miterlimit:10;stroke-opacity:1;stroke-dasharray:none"
                                   d="M 0,0 14.16,0"
                                   inkscape:connector-curvature="0" /><g
                                   transform="translate(14.16,-141.72)"
                                   id="g3134"><path
                                   id="path3136"
                                   style="fill:none;stroke:#000000;stroke-width:0.47999999;stroke-linecap:round;stroke-linejoin:round;stroke-miterlimit:10;stroke-opacity:1;stroke-dasharray:none"
                                   d="M 0,0 -14.16,0"
                                   inkscape:connector-curvature="0" /><g
                                   transform="translate(0,678.66)"
                                   id="g3138"><path
                                   id="path3140"
                                   style="fill:none;stroke:#000000;stroke-width:0.47999999;stroke-linecap:round;stroke-linejoin:round;stroke-miterlimit:10;stroke-opacity:1;stroke-dasharray:none"
                                   d="M 0,0 0,-785.76"
                                   inkscape:connector-curvature="0" /><g
                                   transform="translate(-14.16,11.58)"
                                   id="g3142"><path
                                   id="path3144"
                                   style="fill:none;stroke:#000000;stroke-width:0.47999999;stroke-linecap:round;stroke-linejoin:round;stroke-miterlimit:10;stroke-opacity:1;stroke-dasharray:none"
                                   d="M 0,0 0,-813.6"
                                   inkscape:connector-curvature="0" /><g
                                   transform="translate(274.08,-37.14)"
                                   id="g3146"><path
                                   id="path3148"
                                   style="fill:none;stroke:#000000;stroke-width:0.47999999;stroke-linecap:round;stroke-linejoin:round;stroke-miterlimit:10;stroke-opacity:1;stroke-dasharray:none"
                                   d="M 0,0 277.92,0"
                                   inkscape:connector-curvature="0" /><g
                                   transform="translate(-131.52,25.56)"
                                   id="g3150"><path
                                   id="path3152"
                                   style="fill:none;stroke:#000000;stroke-width:0.47999999;stroke-linecap:round;stroke-linejoin:round;stroke-miterlimit:10;stroke-opacity:1;stroke-dasharray:none"
                                   d="M 0,0 0,-39.72"
                                   inkscape:connector-curvature="0" /><g
                                   transform="translate(131.52,-51.06)"
                                   id="g3154"><path
                                   id="path3156"
                                   style="fill:none;stroke:#000000;stroke-width:0.47999999;stroke-linecap:round;stroke-linejoin:round;stroke-miterlimit:10;stroke-opacity:1;stroke-dasharray:none"
                                   d="M 0,0 277.92,0"
                                   inkscape:connector-curvature="0" /><g
                                   transform="translate(0,51.06)"
                                   id="g3158"><path
                                   id="path3160"
                                   style="fill:none;stroke:#000000;stroke-width:0.47999999;stroke-linecap:round;stroke-linejoin:round;stroke-miterlimit:10;stroke-opacity:1;stroke-dasharray:none"
                                   d="M 0,0 0,-51.06"
                                   inkscape:connector-curvature="0" /><g
                                   transform="translate(0,-39.72)"
                                   id="g3162"><path
                                   id="path3164"
                                   style="fill:none;stroke:#000000;stroke-width:0.47999999;stroke-linecap:round;stroke-linejoin:round;stroke-miterlimit:10;stroke-opacity:1;stroke-dasharray:none"
                                   d="M 0,0 -259.92,0"
                                   inkscape:connector-curvature="0" /><g
                                   transform="translate(-238.5,-544.02)"
                                   id="g3166"><path
                                   id="path3168"
                                   style="fill:none;stroke:#000000;stroke-width:0.47999999;stroke-linecap:round;stroke-linejoin:round;stroke-miterlimit:10;stroke-opacity:1;stroke-dasharray:none"
                                   d="M 0,0 0,-71.82"
                                   inkscape:connector-curvature="0" /><g
                                   id="g3170"><path
                                   id="path3172"
                                   style="fill:none;stroke:#000000;stroke-width:0.47999999;stroke-linecap:round;stroke-linejoin:round;stroke-miterlimit:10;stroke-opacity:1;stroke-dasharray:none"
                                   d="M 0,0 530.64,0"
                                   inkscape:connector-curvature="0" /><g
                                   transform="translate(116.88,-88.86)"
                                   id="g3174"><path
                                   id="path3176"
                                   style="fill:none;stroke:#000000;stroke-width:0.47999999;stroke-linecap:round;stroke-linejoin:round;stroke-miterlimit:10;stroke-opacity:1;stroke-dasharray:none"
                                   d="M 0,0 0,-16.98"
                                   inkscape:connector-curvature="0" /><g
                                   transform="translate(-116.88,37.86)"
                                   id="g3178"><path
                                   id="path3180"
                                   style="fill:none;stroke:#000000;stroke-width:0.47999999;stroke-linecap:round;stroke-linejoin:round;stroke-miterlimit:10;stroke-opacity:1;stroke-dasharray:none"
                                   d="M 0,0 530.64,0"
                                   inkscape:connector-curvature="0" /><g
                                   transform="translate(0,-20.82)"
                                   id="g3182"><path
                                   id="path3184"
                                   style="fill:none;stroke:#000000;stroke-width:0.47999999;stroke-linecap:round;stroke-linejoin:round;stroke-miterlimit:10;stroke-opacity:1;stroke-dasharray:none"
                                   d="M 0,0 276.42,0"
                                   inkscape:connector-curvature="0" /><g
                                   transform="translate(276.42,-68.04)"
                                   id="g3186"><path
                                   id="path3188"
                                   style="fill:none;stroke:#000000;stroke-width:0.47999999;stroke-linecap:round;stroke-linejoin:round;stroke-miterlimit:10;stroke-opacity:1;stroke-dasharray:none"
                                   d="M 0,0 0,34.02"
                                   inkscape:connector-curvature="0" /><g
                                   transform="translate(90.36,29.76)"
                                   id="g3190"><path
                                   id="path3192"
                                   style="fill:none;stroke:#000000;stroke-width:0.47999999;stroke-linecap:round;stroke-linejoin:round;stroke-miterlimit:10;stroke-opacity:1;stroke-dasharray:none"
                                   d="M 0,0 0,-25.5"
                                   inkscape:connector-curvature="0" /><g
                                   transform="translate(-34.02,-19.86)"
                                   id="g3194"><path
                                   id="path3196"
                                   style="fill:none;stroke:#000000;stroke-width:0.47999999;stroke-linecap:round;stroke-linejoin:round;stroke-miterlimit:10;stroke-opacity:1;stroke-dasharray:none"
                                   d="M 0,0 34.02,-5.64"
                                   inkscape:connector-curvature="0" /><g
                                   transform="translate(0,14.16)"
                                   id="g3198"><path
                                   id="path3200"
                                   style="fill:none;stroke:#000000;stroke-width:0.47999999;stroke-linecap:round;stroke-linejoin:round;stroke-miterlimit:10;stroke-opacity:1;stroke-dasharray:none"
                                   d="M 0,0 0,-14.16"
                                   inkscape:connector-curvature="0" /><g
                                   id="g3202"><path
                                   id="path3204"
                                   style="fill:none;stroke:#000000;stroke-width:0.47999999;stroke-linecap:round;stroke-linejoin:round;stroke-miterlimit:10;stroke-opacity:1;stroke-dasharray:none"
                                   d="M 0,0 34.02,5.7"
                                   inkscape:connector-curvature="0" /><g
                                   transform="translate(72.54,-102.48)"
                                   id="g3206"><path
                                   id="path3208"
                                   style="fill:none;stroke:#000000;stroke-width:0.47999999;stroke-linecap:round;stroke-linejoin:round;stroke-miterlimit:10;stroke-opacity:1;stroke-dasharray:none"
                                   d="M 0,0 0,8.28"
                                   inkscape:connector-curvature="0" /><g
                                   transform="translate(-23.52,146.46)"
                                   id="g3210"><path
                                   id="path3212"
                                   style="fill:none;stroke:#000000;stroke-width:0.47999999;stroke-linecap:round;stroke-linejoin:round;stroke-miterlimit:10;stroke-opacity:1;stroke-dasharray:none"
                                   d="M 0,0 -105.36,0"
                                   inkscape:connector-curvature="0" /><g
                                   transform="translate(0,-85.08)"
                                   id="g3214"><path
                                   id="path3216"
                                   style="fill:none;stroke:#000000;stroke-width:0.47999999;stroke-linecap:round;stroke-linejoin:round;stroke-miterlimit:10;stroke-opacity:1;stroke-dasharray:none"
                                   d="M 0,0 148.86,0"
                                   inkscape:connector-curvature="0" /><g
                                   transform="translate(0,51.06)"
                                   id="g3218"><path
                                   id="path3220"
                                   style="fill:none;stroke:#000000;stroke-width:0.47999999;stroke-linecap:round;stroke-linejoin:round;stroke-miterlimit:10;stroke-opacity:1;stroke-dasharray:none"
                                   d="M 0,0 -105.36,0"
                                   inkscape:connector-curvature="0" /><g
                                   transform="translate(0,-34.02)"
                                   id="g3222"><path
                                   id="path3224"
                                   style="fill:none;stroke:#000000;stroke-width:0.47999999;stroke-linecap:round;stroke-linejoin:round;stroke-miterlimit:10;stroke-opacity:1;stroke-dasharray:none"
                                   d="M 0,0 148.86,0"
                                   inkscape:connector-curvature="0" /><g
                                   transform="translate(-381.78,-78.42)"
                                   id="g3226"><path
                                   id="path3228"
                                   style="fill:none;stroke:#000000;stroke-width:0.47999999;stroke-linecap:round;stroke-linejoin:round;stroke-miterlimit:10;stroke-opacity:1;stroke-dasharray:none"
                                   d="M 0,0 0,146.46"
                                   inkscape:connector-curvature="0" /><g
                                   transform="translate(381.78,95.4)"
                                   id="g3230"><path
                                   id="path3232"
                                   style="fill:none;stroke:#000000;stroke-width:0.47999999;stroke-linecap:round;stroke-linejoin:round;stroke-miterlimit:10;stroke-opacity:1;stroke-dasharray:none"
                                   d="M 0,0 148.86,0"
                                   inkscape:connector-curvature="0" /><g
                                   transform="translate(0,17.04)"
                                   id="g3234"><path
                                   id="path3236"
                                   style="fill:none;stroke:#000000;stroke-width:0.47999999;stroke-linecap:round;stroke-linejoin:round;stroke-miterlimit:10;stroke-opacity:1;stroke-dasharray:none"
                                   d="M 0,0 148.86,0"
                                   inkscape:connector-curvature="0" /><g
                                   transform="translate(0,16.98)"
                                   id="g3238"><path
                                   id="path3240"
                                   style="fill:none;stroke:#000000;stroke-width:0.47999999;stroke-linecap:round;stroke-linejoin:round;stroke-miterlimit:10;stroke-opacity:1;stroke-dasharray:none"
                                   d="M 0,0 148.86,0"
                                   inkscape:connector-curvature="0" /><g
                                   transform="translate(0,17.04)"
                                   id="g3242"><path
                                   id="path3244"
                                   style="fill:none;stroke:#000000;stroke-width:0.47999999;stroke-linecap:round;stroke-linejoin:round;stroke-miterlimit:10;stroke-opacity:1;stroke-dasharray:none"
                                   d="M 0,0 148.86,0"
                                   inkscape:connector-curvature="0" /><g
                                   transform="translate(0,-68.04)"
                                   id="g3246"><path
                                   id="path3248"
                                   style="fill:none;stroke:#000000;stroke-width:0.47999999;stroke-linecap:round;stroke-linejoin:round;stroke-miterlimit:10;stroke-opacity:1;stroke-dasharray:none"
                                   d="M 0,0 -105.36,0"
                                   inkscape:connector-curvature="0" /><g
                                   transform="translate(-105.36,-34.02)"
                                   id="g3250"><path
                                   id="path3252"
                                   style="fill:none;stroke:#000000;stroke-width:0.47999999;stroke-linecap:round;stroke-linejoin:round;stroke-miterlimit:10;stroke-opacity:1;stroke-dasharray:none"
                                   d="M 0,0 0,34.02"
                                   inkscape:connector-curvature="0" /><g
                                   transform="translate(105.36,0)"
                                   id="g3254"><path
                                   id="path3256"
                                   style="fill:none;stroke:#000000;stroke-width:0.47999999;stroke-linecap:round;stroke-linejoin:round;stroke-miterlimit:10;stroke-opacity:1;stroke-dasharray:none"
                                   d="M 0,0 0,102.06"
                                   inkscape:connector-curvature="0" /><g
                                   transform="translate(-75.66,-15.66)"
                                   id="g3258"><path
                                   id="path3260"
                                   style="fill:none;stroke:#000000;stroke-width:0.47999999;stroke-linecap:round;stroke-linejoin:round;stroke-miterlimit:10;stroke-opacity:1;stroke-dasharray:none"
                                   d="M 0,0 0,-20.46"
                                   inkscape:connector-curvature="0" /><g
                                   transform="translate(-29.7,0)"
                                   id="g3262"><path
                                   id="path3264"
                                   style="fill:none;stroke:#000000;stroke-width:0.47999999;stroke-linecap:round;stroke-linejoin:round;stroke-miterlimit:10;stroke-opacity:1;stroke-dasharray:none"
                                   d="M 0,0 29.7,0"
                                   inkscape:connector-curvature="0" /><g
                                   transform="translate(209.7,15.66)"
                                   id="g3266"><path
                                   id="path3268"
                                   style="fill:none;stroke:#000000;stroke-width:0.47999999;stroke-linecap:round;stroke-linejoin:round;stroke-miterlimit:10;stroke-opacity:1;stroke-dasharray:none"
                                   d="M 0,0 0,-36.12"
                                   inkscape:connector-curvature="0" /><g
                                   transform="translate(-56.88,0)"
                                   id="g3270"><path
                                   id="path3272"
                                   style="fill:none;stroke:#000000;stroke-width:0.47999999;stroke-linecap:round;stroke-linejoin:round;stroke-miterlimit:10;stroke-opacity:1;stroke-dasharray:none"
                                   d="M 0,0 0,-36.12"
                                   inkscape:connector-curvature="0" /><g
                                   transform="translate(-152.82,-36.12)"
                                   id="g3274"><path
                                   id="path3276"
                                   style="fill:none;stroke:#000000;stroke-width:0.47999999;stroke-linecap:round;stroke-linejoin:round;stroke-miterlimit:10;stroke-opacity:1;stroke-dasharray:none"
                                   d="m 0,0 0,36.12 254.22,0"
                                   inkscape:connector-curvature="0" /><g
                                   transform="translate(-276.42,0)"
                                   id="g3278"><path
                                   id="path3280"
                                   style="fill:none;stroke:#000000;stroke-width:0.47999999;stroke-linecap:round;stroke-linejoin:round;stroke-miterlimit:10;stroke-opacity:1;stroke-dasharray:none"
                                   d="M 0,0 530.64,0"
                                   inkscape:connector-curvature="0" /><g
                                   transform="translate(314.04,90.9)"
                                   id="g3282"><path
                                   id="path3284"
                                   style="fill:none;stroke:#000000;stroke-width:0.47999999;stroke-linecap:round;stroke-linejoin:round;stroke-miterlimit:10;stroke-opacity:1;stroke-dasharray:none"
                                   d="m 0,0 -0.6,1.62 -0.9,1.56 c -7.357,11.065 -24.298,5.215 -23.4,-8.04 l 0.3,-1.74 0.54,-1.74 c 5.433,-13.207 24.476,-9.484 24.66,4.8 L 0.42,-1.74 0,0"
                                   inkscape:connector-curvature="0" /><g
                                   transform="translate(-5.4,-1.68)"
                                   id="g3286"><path
                                   id="path3288"
                                   style="fill:none;stroke:#000000;stroke-width:0.47999999;stroke-linecap:round;stroke-linejoin:round;stroke-miterlimit:10;stroke-opacity:1;stroke-dasharray:none"
                                   d="M 0,0 -0.48,1.2 -1.2,2.28 c -4.503,5.563 -13.35,2.008 -12.6,-5.16 l 0.24,-1.26 0.48,-1.2 c 3.489,-6.307 12.681,-4.401 13.38,2.76 L 0.24,-1.26 0,0"
                                   inkscape:connector-curvature="0" /></g></g></g></g></g></g></g></g></g></g></g></g></g></g></g></g></g></g></g></g></g></g></g></g></g></g></g></g></g></g></g></g></g></g></g></g></g></g></g></g></g></g></g></g></g></g></g></g></g></g></g></g></g></g></g></g></g></g></g></g></g></g></g></g></g></g></g></g></g><text
     y="-775.88031"
     x="345.78"
     id="text3290"
     transform="scale(1,-1)"><tspan
       y="-775.88031"
       x="345.78"
       id="tspan3292"
       sodipodi:role="line"
       style="font-size:9.96000004px;font-variant:normal;font-weight:bold;font-stretch:normal;writing-mode:lr-tb;fill:#000000;fill-opacity:1;fill-rule:nonzero;stroke:none;font-family:Century Gothic;-inkscape-font-specification:CenturyGothic-Bold" /><tspan
       id="tspan3294"
       sodipodi:role="line"
       y="-798.20068"
       x="291 299.98792 307.3822 311.58932 316.79242 322.59311 325.40582 332.80014 337.20642"
       style="font-size:9.96000004px;font-variant:normal;font-weight:bold;font-stretch:normal;writing-mode:lr-tb;fill:#000000;fill-opacity:1;fill-rule:nonzero;stroke:none;font-family:Century Gothic;-inkscape-font-specification:CenturyGothic-Bold">MATERIAL:</tspan><tspan
       id="tspan3296"
       sodipodi:role="line"
       y="-775.88031"
       x="317.2197 325.60104 329.79919 335.98932"
       style="font-size:9.96000004px;font-variant:normal;font-weight:bold;font-stretch:normal;writing-mode:lr-tb;fill:#000000;fill-opacity:1;fill-rule:nonzero;stroke:none;font-family:Century Gothic;-inkscape-font-specification:CenturyGothic-Bold">QTY:</tspan></text>
<text
     y="-348.14041"
     x="18.719999"
     id="text3298"
     transform="scale(1,-1)"><tspan
       id="tspan3300"
       y="-348.14041"
       x="18.719999"
       style="font-size:6.96000004px;font-variant:normal;font-weight:normal;font-stretch:normal;writing-mode:lr-tb;fill:#000000;fill-opacity:1;fill-rule:nonzero;stroke:none;font-family:Century Gothic;-inkscape-font-specification:CenturyGothic">D</tspan><tspan
       id="tspan3302"
       y="-206.42018"
       x="18.719999"
       style="font-size:6.96000004px;font-variant:normal;font-weight:normal;font-stretch:normal;writing-mode:lr-tb;fill:#000000;fill-opacity:1;fill-rule:nonzero;stroke:none;font-family:Century Gothic;-inkscape-font-specification:CenturyGothic">E</tspan><tspan
       id="tspan3304"
       y="-64.699974"
       x="18.719999"
       style="font-size:6.96000004px;font-variant:normal;font-weight:normal;font-stretch:normal;writing-mode:lr-tb;fill:#000000;fill-opacity:1;fill-rule:nonzero;stroke:none;font-family:Century Gothic;-inkscape-font-specification:CenturyGothic">F</tspan><tspan
       id="tspan3306"
       y="-489.85992"
       x="18.719999"
       style="font-size:6.96000004px;font-variant:normal;font-weight:normal;font-stretch:normal;writing-mode:lr-tb;fill:#000000;fill-opacity:1;fill-rule:nonzero;stroke:none;font-family:Century Gothic;-inkscape-font-specification:CenturyGothic">C</tspan><tspan
       id="tspan3308"
       y="-631.64001"
       x="18.719999"
       style="font-size:6.96000004px;font-variant:normal;font-weight:normal;font-stretch:normal;writing-mode:lr-tb;fill:#000000;fill-opacity:1;fill-rule:nonzero;stroke:none;font-family:Century Gothic;-inkscape-font-specification:CenturyGothic">B</tspan><tspan
       id="tspan3310"
       y="-773.36023"
       x="18.719999"
       style="font-size:6.96000004px;font-variant:normal;font-weight:normal;font-stretch:normal;writing-mode:lr-tb;fill:#000000;fill-opacity:1;fill-rule:nonzero;stroke:none;font-family:Century Gothic;-inkscape-font-specification:CenturyGothic">A</tspan><tspan
       id="tspan3312"
       sodipodi:role="line"
       y="-818.71991"
       x="380.15976 238.43954 97.859375"
       style="font-size:6.96000004px;font-variant:normal;font-weight:normal;font-stretch:normal;writing-mode:lr-tb;fill:#000000;fill-opacity:1;fill-rule:nonzero;stroke:none;font-family:Century Gothic;-inkscape-font-specification:CenturyGothic">321</tspan><tspan
       id="tspan3314"
       y="-489.85992"
       x="570.77954"
       style="font-size:6.96000004px;font-variant:normal;font-weight:normal;font-stretch:normal;writing-mode:lr-tb;fill:#000000;fill-opacity:1;fill-rule:nonzero;stroke:none;font-family:Century Gothic;-inkscape-font-specification:CenturyGothic">C</tspan><tspan
       id="tspan3316"
       y="-348.13971"
       x="570.77954"
       style="font-size:6.96000004px;font-variant:normal;font-weight:normal;font-stretch:normal;writing-mode:lr-tb;fill:#000000;fill-opacity:1;fill-rule:nonzero;stroke:none;font-family:Century Gothic;-inkscape-font-specification:CenturyGothic">D</tspan><tspan
       id="tspan3318"
       y="-818.71991"
       x="521.87927"
       style="font-size:6.96000004px;font-variant:normal;font-weight:normal;font-stretch:normal;writing-mode:lr-tb;fill:#000000;fill-opacity:1;fill-rule:nonzero;stroke:none;font-family:Century Gothic;-inkscape-font-specification:CenturyGothic">4</tspan><tspan
       id="tspan3320"
       y="-773.36023"
       x="570.77954"
       style="font-size:6.96000004px;font-variant:normal;font-weight:normal;font-stretch:normal;writing-mode:lr-tb;fill:#000000;fill-opacity:1;fill-rule:nonzero;stroke:none;font-family:Century Gothic;-inkscape-font-specification:CenturyGothic">A</tspan><tspan
       id="tspan3322"
       y="-631.64001"
       x="570.77954"
       style="font-size:6.96000004px;font-variant:normal;font-weight:normal;font-stretch:normal;writing-mode:lr-tb;fill:#000000;fill-opacity:1;fill-rule:nonzero;stroke:none;font-family:Century Gothic;-inkscape-font-specification:CenturyGothic">B</tspan></text>
<text
     y="-17.060301"
     x="207.24001"
     id="text3328"
     transform="scale(1,-1)"><tspan
       id="tspan3330"
       sodipodi:role="line"
       y="-17.060301"
       x="207.24001 212.64032 215.57932 216.77901 221.63863 225.35826 227.75934 229.20009"
       style="font-size:5.57999992px;font-variant:normal;font-weight:normal;font-stretch:normal;writing-mode:lr-tb;fill:#000000;fill-opacity:1;fill-rule:nonzero;stroke:none;font-family:Century Gothic;-inkscape-font-specification:CenturyGothic">WEIGHT: </tspan></text>
<text
     y="-32.9603"
     x="333.29999"
     id="text3332"
     transform="scale(1,-1)"><tspan
       id="tspan3334"
       sodipodi:role="line"
       y="-32.9603"
       x="333.29999 341.40323"
       style="font-size:10.97999954px;font-variant:normal;font-weight:normal;font-stretch:normal;writing-mode:lr-tb;fill:#000000;fill-opacity:1;fill-rule:nonzero;stroke:none;font-family:Century Gothic;-inkscape-font-specification:CenturyGothic">A4</tspan></text>
<text
     y="-16.5203"
     x="463.62"
     id="text3336"
     transform="scale(1,-1)"><tspan
       id="tspan3338"
       sodipodi:role="line"
       y="-16.5203"
       x="463.62 466.37317 470.15863 473.09818 476.03717 478.43826 479.99896 482.87769 484.43842 489.29749 491.93851 493.49924"
       style="font-size:5.57999992px;font-variant:normal;font-weight:normal;font-stretch:normal;writing-mode:lr-tb;fill:#000000;fill-opacity:1;fill-rule:nonzero;stroke:none;font-family:Century Gothic;-inkscape-font-specification:CenturyGothic">SHEET 1 OF 1</tspan></text>
<text
     y="-71.540298"
     x="360"
     id="text3340"
     transform="scale(1,-1)"><tspan
       id="tspan3342"
       sodipodi:role="line"
       y="-71.540298"
       x="360 365.09753 367.67917"
       style="font-size:9.96000004px;font-variant:normal;font-weight:normal;font-stretch:normal;writing-mode:lr-tb;fill:#000000;fill-opacity:1;fill-rule:nonzero;stroke:none;font-family:Century Gothic;-inkscape-font-specification:CenturyGothic">1:1</tspan></text>
<text
     y="-50.900299"
     x="338.28"
     id="text3344"
     transform="scale(1,-1)"><tspan
       id="tspan3346"
       sodipodi:role="line"
       y="-50.900299"
       x="338.28 342.42203 347.82236 352.67862 354.23935 358.32056 363.17963"
       style="font-size:5.57999992px;font-variant:normal;font-weight:normal;font-stretch:normal;writing-mode:lr-tb;fill:#000000;fill-opacity:1;fill-rule:nonzero;stroke:none;font-family:Century Gothic;-inkscape-font-specification:CenturyGothic">DWG NO.</tspan><tspan
       id="tspan3348"
       sodipodi:role="line"
       y="-217.70045"
       x="60.779907 63.180969 64.380676 66.781738 69.302246 72.241211"
       style="font-size:5.57999992px;font-variant:normal;font-weight:normal;font-stretch:normal;writing-mode:lr-tb;fill:#000000;fill-opacity:1;fill-rule:nonzero;stroke:none;font-family:Century Gothic;-inkscape-font-specification:CenturyGothic">TITLE:</tspan></text>
<text
     y="40.259998"
     x="456.20029"
     id="text3350"
     transform="matrix(0,1,1,0,0,0)"><tspan
       id="tspan3352"
       sodipodi:role="line"
       y="40.259998"
       x="456.20029 460.34903 465.19525 466.75598 470.83719 475.69626 478.09732 479.65805 482.43411 486.96786 491.09427 493.61475 496.55429 498.11502 502.26376 505.64804 509.77444 515.17474 516.37445 520.45569 268.64032 272.77957 275.71854 278.90918 282.51053 285.88531 287.44601 291.56296 295.64417 299.78342 301.34415 304.53479 307.90958 310.84854 314.99002 318.27554 319.83624 322.60281 326.40167 330.51862 333.8934 337.13425 338.69498 341.63397 345.77319 350.62671 353.56567"
       style="font-size:5.57999992px;font-variant:normal;font-weight:normal;font-stretch:normal;writing-mode:lr-tb;fill:#000000;fill-opacity:1;fill-rule:nonzero;stroke:none;font-family:Century Gothic;-inkscape-font-specification:CenturyGothic">DO NOT SCALE DRAWINGDEBUR AND BREAK SHARP EDGES</tspan><tspan
       id="tspan3354"
       sodipodi:role="line"
       y="38.579861"
       x="609.56049 613.16064 617.23517 619.75848 622.69464 625.45453 628.21442 629.77515 634.63422 637.03528 640.81458 643.75415 647.11444 652.51471 653.72113 656.48102 659.41718 660.97791 663.73779 666.97864 669.91486 674.39673 675.60309 678.2547 679.46112 682.39734 686.53656 687.97729 692.11658 693.31628 698.47662 701.41565 705.49011 708.25 709.45642 714.31549 718.39001 721.14984 722.71057 726.85205 730.21234 733.14856 734.70929 735.91565 739.99017 741.5509 746.7113 747.91101 750.43427 752.95752 754.16394 759.32434 762.26385 764.66492 767.60449 770.96478"
       style="font-size:5.57999992px;font-variant:normal;font-weight:normal;font-stretch:normal;writing-mode:lr-tb;fill:#000000;fill-opacity:1;fill-rule:nonzero;stroke:none;font-family:Century Gothic;-inkscape-font-specification:CenturyGothic">UNLESS OTHERWISE SPECIFIED:DIMENSIONS ARE IN MILLIMETERS</tspan></text>
<text
     y="-51.320301"
     x="482.70001"
     id="text3362"
     transform="scale(1,-1)"><tspan
       id="tspan3364"
       sodipodi:role="line"
       y="-51.320301"
       x="482.70001 485.45319 489.23865"
       style="font-size:5.57999992px;font-variant:normal;font-weight:normal;font-stretch:normal;writing-mode:lr-tb;fill:#000000;fill-opacity:1;fill-rule:nonzero;stroke:none;font-family:Century Gothic;-inkscape-font-specification:CenturyGothic">SHT</tspan></text>
<text
     y="-166.4603"
     x="96.300003"
     id="text3366"
     transform="scale(1,-1)"><tspan
       y="-166.4603"
       x="96.300003"
       id="tspan3368"
       sodipodi:role="line"
       style="font-size:12px;font-variant:normal;font-weight:normal;font-stretch:normal;writing-mode:lr-tb;fill:#000000;fill-opacity:1;fill-rule:nonzero;stroke:none;font-family:Century Gothic;-inkscape-font-specification:CenturyGothic" /></text>
<text
     y="-148.2803"
     x="435.42001"
     id="text3374"
     transform="scale(1,-1)"><tspan
       id="tspan3376"
       sodipodi:role="line"
       y="-148.2803"
       x="435.42001 442.68283 445.68478 452.34006 460.61978"
       style="font-size:9.96000004px;font-variant:normal;font-weight:normal;font-stretch:normal;writing-mode:lr-tb;fill:#000000;fill-opacity:1;fill-rule:nonzero;stroke:none;font-family:Century Gothic;-inkscape-font-specification:CenturyGothic">Drawn</tspan></text>
<text
     y="-148.22031"
     x="466.5"
     id="text3378"
     transform="scale(1,-1)"><tspan
       id="tspan3380"
       y="-148.22031"
       x="466.5"
       style="font-size:5.57999992px;font-variant:normal;font-weight:normal;font-stretch:normal;writing-mode:lr-tb;fill:#000000;fill-opacity:1;fill-rule:nonzero;stroke:none;font-family:Century Gothic;-inkscape-font-specification:CenturyGothic">:</tspan></text>
<text
     y="-131.9603"
     x="435"
     id="text3382"
     transform="scale(1,-1)"><tspan
       id="tspan3384"
       sodipodi:role="line"
       y="-131.9603"
       x="435 442.26282 448.91809 452.21985 458.5813"
       style="font-size:9.96000004px;font-variant:normal;font-weight:normal;font-stretch:normal;writing-mode:lr-tb;fill:#000000;fill-opacity:1;fill-rule:nonzero;stroke:none;font-family:Century Gothic;-inkscape-font-specification:CenturyGothic">Date:</tspan><tspan
       id="tspan3386"
       sodipodi:role="line"
       y="-97.580368"
       x="435.66034 442.92319 449.57846 452.88019 459.24066"
       style="font-size:9.96000004px;font-variant:normal;font-weight:normal;font-stretch:normal;writing-mode:lr-tb;fill:#000000;fill-opacity:1;fill-rule:nonzero;stroke:none;font-family:Century Gothic;-inkscape-font-specification:CenturyGothic">Date:</tspan><tspan
       id="tspan3388"
       sodipodi:role="line"
       y="-113.90083"
       x="436.0199 443.99387 449.94598 454.82239 456.62515 463.32425"
       style="font-size:9.96000004px;font-variant:normal;font-weight:normal;font-stretch:normal;writing-mode:lr-tb;fill:#000000;fill-opacity:1;fill-rule:nonzero;stroke:none;font-family:Century Gothic;-inkscape-font-specification:CenturyGothic">Chk'd:</tspan><tspan
       id="tspan3390"
       sodipodi:role="line"
       y="-78.981064"
       x="435.89938 443.22198 449.86728 456.5126 461.97067 463.79535 470.47055"
       style="font-size:9.96000004px;font-variant:normal;font-weight:normal;font-stretch:normal;writing-mode:lr-tb;fill:#000000;fill-opacity:1;fill-rule:nonzero;stroke:none;font-family:Century Gothic;-inkscape-font-specification:CenturyGothic">Appv'd:</tspan><tspan
       id="tspan3392"
       sodipodi:role="line"
       y="-62.721371"
       x="435.47906 442.74191 449.39719 452.69891 459.06036"
       style="font-size:9.96000004px;font-variant:normal;font-weight:normal;font-stretch:normal;writing-mode:lr-tb;fill:#000000;fill-opacity:1;fill-rule:nonzero;stroke:none;font-family:Century Gothic;-inkscape-font-specification:CenturyGothic">Date:</tspan></text>
<text
     y="-86.945557"
     x="331.73999"
     id="text3408"
     transform="scale(1,-1)"><tspan
       id="tspan3410"
       sodipodi:role="line"
       y="-86.945557"
       x="331.73999 334.49094 338.99957 343.14105 345.66153 348.60052"
       style="font-size:5.57999992px;font-variant:normal;font-weight:normal;font-stretch:normal;writing-mode:lr-tb;fill:#000000;fill-opacity:1;fill-rule:nonzero;stroke:none;font-family:Century Gothic;-inkscape-font-specification:CenturyGothic">SCALE:</tspan></text>
<text
     y="-130.6404"
     x="54"
     id="text3412"
     transform="scale(1,-1)"><tspan
       id="tspan3414"
       sodipodi:role="line"
       y="-130.6404"
       x="54 58.674229 65.071533 71.737762 74.499672 81.743576 88.140884 90.722519"
       style="font-size:9.96000004px;font-variant:normal;font-weight:normal;font-stretch:normal;writing-mode:lr-tb;fill:#000000;fill-opacity:1;fill-rule:nonzero;stroke:none;font-family:Century Gothic;-inkscape-font-specification:CenturyGothic">Job No.:</tspan><tspan
       y="0"
       x="54"
       id="tspan3416"
       sodipodi:role="line"
       style="font-size:9.96000004px;font-variant:normal;font-weight:normal;font-stretch:normal;writing-mode:lr-tb;fill:#000000;fill-opacity:1;fill-rule:nonzero;stroke:none;font-family:Century Gothic;-inkscape-font-specification:CenturyGothic" /><tspan
       id="tspan3418"
       sodipodi:role="line"
       y="-133.28079"
       x="168.2402 176.23012 178.11455 179.99898 186.36542 192.33345 195.60231 197.40508 201.18291 203.94481 212.49248 215.49443 222.20946 228.5759 231.57784 234.33974 241.54182 247.96404 250.54565"
       style="font-size:9.96000004px;font-variant:normal;font-weight:normal;font-stretch:normal;writing-mode:lr-tb;fill:#000000;fill-opacity:1;fill-rule:nonzero;stroke:none;font-family:Century Gothic;-inkscape-font-specification:CenturyGothic">Client's Order No.:</tspan><tspan
       y="0"
       x="54"
       id="tspan3420"
       sodipodi:role="line"
       style="font-size:9.96000004px;font-variant:normal;font-weight:normal;font-stretch:normal;writing-mode:lr-tb;fill:#000000;fill-opacity:1;fill-rule:nonzero;stroke:none;font-family:Century Gothic;-inkscape-font-specification:CenturyGothic" /><tspan
       id="tspan3422"
       sodipodi:role="line"
       y="-147.14113"
       x="53.759964 59.539753 62.541695 68.948967 70.928017 77.285484 83.645943 86.947678 89.529312"
       style="font-size:9.96000004px;font-variant:normal;font-weight:normal;font-stretch:normal;writing-mode:lr-tb;fill:#000000;fill-opacity:1;fill-rule:nonzero;stroke:none;font-family:Century Gothic;-inkscape-font-specification:CenturyGothic">Project.:</tspan></text>
<text
     y="-52.6404"
     x="539.99988"
     id="text3424"
     transform="scale(1,-1)"><tspan
       id="tspan3426"
       sodipodi:role="line"
       y="-52.6404"
       x="539.99988 543.36017 546.96039"
       style="font-size:5.57999992px;font-variant:normal;font-weight:normal;font-stretch:normal;writing-mode:lr-tb;fill:#000000;fill-opacity:1;fill-rule:nonzero;stroke:none;font-family:Century Gothic;-inkscape-font-specification:CenturyGothic">Rev</tspan></text>
<text
     y="-803.0603"
     x="33.720001"
     id="text3432"
     transform="scale(1,-1)"><tspan
       id="tspan3434"
       sodipodi:role="line"
       y="-803.0603"
       x="33.720001 37.862034 43.26236 48.118633 49.679359 53.760571 58.619633"
       style="font-size:5.57999992px;font-variant:normal;font-weight:normal;font-stretch:normal;writing-mode:lr-tb;fill:#000000;fill-opacity:1;fill-rule:nonzero;stroke:none;font-family:Century Gothic;-inkscape-font-specification:CenturyGothic">DWG NO.</tspan></text>
<text
     y="-803.54028"
     x="178.2"
     id="text3440"
     transform="scale(1,-1)"><tspan
       id="tspan3442"
       sodipodi:role="line"
       y="-803.54028"
       x="178.2 180.95317 184.73865"
       style="font-size:5.57999992px;font-variant:normal;font-weight:normal;font-stretch:normal;writing-mode:lr-tb;fill:#000000;fill-opacity:1;fill-rule:nonzero;stroke:none;font-family:Century Gothic;-inkscape-font-specification:CenturyGothic">SHT</tspan></text>
<text
     y="-804.80029"
     x="235.5"
     id="text3448"
     transform="scale(1,-1)"><tspan
       id="tspan3450"
       sodipodi:role="line"
       y="-804.80029"
       x="235.5 238.86028 242.46049"
       style="font-size:5.57999992px;font-variant:normal;font-weight:normal;font-stretch:normal;writing-mode:lr-tb;fill:#000000;fill-opacity:1;fill-rule:nonzero;stroke:none;font-family:Century Gothic;-inkscape-font-specification:CenturyGothic">Rev</tspan></text>
<text
     y="-31.580299"
     x="55.740002"
     id="text3456"
     transform="scale(1,-1)"><tspan
       id="tspan3458"
       sodipodi:role="line"
       y="-31.580299"
       x="55.740002 63.414368 68.654831 72.059898 77.523804 79.133369 81.54892 83.769753 87.470078 90.188858 95.668724 97.889565 103.86419"
       style="font-size:7.98000002px;font-variant:normal;font-weight:normal;font-stretch:normal;writing-mode:lr-tb;fill:#000000;fill-opacity:1;fill-rule:nonzero;stroke:none;font-family:Century Gothic;-inkscape-font-specification:CenturyGothic">Wozair Ltd  </tspan></text>
<text
     y="-168.3203"
     x="53.700001"
     id="text3460"
     transform="scale(1,-1)"><tspan
       id="tspan3462"
       sodipodi:role="line"
       y="-168.3203"
       x="53.700001 63.310799 65.565598 67.820404 75.475197 82.556396 86.517601 89.578796"
       style="font-size:12px;font-variant:normal;font-weight:normal;font-stretch:normal;writing-mode:lr-tb;fill:#000000;fill-opacity:1;fill-rule:nonzero;stroke:none;font-family:Century Gothic;-inkscape-font-specification:CenturyGothic">Client.:</tspan></text>
<text
     y="-147.8004"
     x="96.360001"
     id="text3464"
     transform="scale(1,-1)"><tspan
       y="-147.8004"
       x="96.360001"
       id="tspan3466"
       sodipodi:role="line"
       style="font-size:9.96000004px;font-variant:normal;font-weight:normal;font-stretch:normal;writing-mode:lr-tb;fill:#000000;fill-opacity:1;fill-rule:nonzero;stroke:none;font-family:Century Gothic;-inkscape-font-specification:CenturyGothic" /></text>
<text
     y="-113.4203"
     x="55.740002"
     id="text3468"
     transform="scale(1,-1)"><tspan
       id="tspan3470"
       sodipodi:role="line"
       y="-113.4203"
       x="55.740002 71.074371 81.540939 88.3367 99.250153 102.45492 107.27164 111.71332 119.0996 124.52281 135.46819"
       style="font-size:15.96000004px;font-variant:normal;font-weight:normal;font-stretch:normal;writing-mode:lr-tb;fill:#000000;fill-opacity:1;fill-rule:nonzero;stroke:none;font-family:Century Gothic;-inkscape-font-specification:CenturyGothic">Wozair Ltd.</tspan></text>
<text
     y="-103.5804"
     x="55.740002"
     id="text3472"
     transform="scale(1,-1)"><tspan
       id="tspan3474"
       sodipodi:role="line"
       y="-103.5804"
       x="55.740002 60.169697 62.390533 68.44017 70.661003 75.090706 77.311539 81.294357 86.753471 89.16423 94.623344 99.795189 104.99097 109.86754 112.08838 118.58489 120.18967 125.42535 128.53036"
       style="font-size:7.98000002px;font-variant:normal;font-weight:normal;font-stretch:normal;writing-mode:lr-tb;fill:#000000;fill-opacity:1;fill-rule:nonzero;stroke:none;font-family:Century Gothic;-inkscape-font-specification:CenturyGothic">5 &amp; 6 Saracen Close</tspan><tspan
       id="tspan3476"
       sodipodi:role="line"
       y="-95.600403"
       x="55.740002 62.712925 64.323288 65.933655 67.544014 69.154381 74.036545 79.421448 84.303612 89.768318 97.267921 99.488754 104.04693 108.90755 112.01815 113.62852 118.51068 123.71204 126.82265 129.93326 132.15408 136.89261 142.35732 144.77367"
       style="font-size:7.98000002px;font-variant:normal;font-weight:normal;font-stretch:normal;writing-mode:lr-tb;fill:#000000;fill-opacity:1;fill-rule:nonzero;stroke:none;font-family:Century Gothic;-inkscape-font-specification:CenturyGothic">Gillingham Business Park</tspan><tspan
       id="tspan3478"
       sodipodi:role="line"
       y="-87.560547"
       x="55.740002 62.712925 64.323288 65.933655 67.544014 69.154381 74.036545 79.421448 84.303612 89.768318 97.267921"
       style="font-size:7.98000002px;font-variant:normal;font-weight:normal;font-stretch:normal;writing-mode:lr-tb;fill:#000000;fill-opacity:1;fill-rule:nonzero;stroke:none;font-family:Century Gothic;-inkscape-font-specification:CenturyGothic">Gillingham </tspan><tspan
       id="tspan3480"
       sodipodi:role="line"
       y="-79.580551"
       x="55.740002 60.470543 65.671906 70.55407 73.273659 75.495285 82.843269 87.134918 91.570198 93.791832 98.227119 105.19206"
       style="font-size:7.98000002px;font-variant:normal;font-weight:normal;font-stretch:normal;writing-mode:lr-tb;fill:#000000;fill-opacity:1;fill-rule:nonzero;stroke:none;font-family:Century Gothic;-inkscape-font-specification:CenturyGothic">Kent ME8 0QN</tspan><tspan
       id="tspan3482"
       sodipodi:role="line"
       y="-71.600548"
       x="55.740002 60.97488 65.850662 67.454643 70.167839 75.362823 80.837097 83.057938 87.782097 89.38607 94.261856 99.640373 105.11465 110.34953"
       style="font-size:7.98000002px;font-variant:normal;font-weight:normal;font-stretch:normal;writing-mode:lr-tb;fill:#000000;fill-opacity:1;fill-rule:nonzero;stroke:none;font-family:Century Gothic;-inkscape-font-specification:CenturyGothic">United Kingdom</tspan><tspan
       id="tspan3484"
       sodipodi:role="line"
       y="-63.560699"
       x="55.740002 59.157833 64.36319 65.977539 68.20636 70.427193 75.281425 79.720695 84.159973 86.380806 90.820076 95.259354 99.698631 104.1379 106.35873 110.79801 115.23728 119.67656 124.11583 128.55511"
       style="font-size:7.98000002px;font-variant:normal;font-weight:normal;font-stretch:normal;writing-mode:lr-tb;fill:#000000;fill-opacity:1;fill-rule:nonzero;stroke:none;font-family:Century Gothic;-inkscape-font-specification:CenturyGothic">Tel: +44 1634 263366</tspan><tspan
       id="tspan3486"
       sodipodi:role="line"
       y="-55.5807"
       x="55.740002 59.627056 65.094154 68.941315 71.168533 73.389366 78.242004 82.67968 87.117363 89.338196 93.775871 98.213547 102.65123 107.08891 109.30974 113.74742 118.1851 122.62277 127.06045 131.49814"
       style="font-size:7.98000002px;font-variant:normal;font-weight:normal;font-stretch:normal;writing-mode:lr-tb;fill:#000000;fill-opacity:1;fill-rule:nonzero;stroke:none;font-family:Century Gothic;-inkscape-font-specification:CenturyGothic">Fax: +44 1634 263377</tspan><tspan
       id="tspan3488"
       sodipodi:role="line"
       y="-47.6007"
       x="55.740002 60.938969 63.6003 71.097511 76.559822 78.167793 79.775764 81.998192 84.219025 89.098793 93.531685 98.993996 104.16902 111.09966 117.743 122.98187 126.38535 131.84766 133.45563 135.86958 138.09201 143.26703 148.50591"
       style="font-size:7.98000002px;font-variant:normal;font-weight:normal;font-stretch:normal;writing-mode:lr-tb;fill:#000000;fill-opacity:1;fill-rule:nonzero;stroke:none;font-family:Century Gothic;-inkscape-font-specification:CenturyGothic">e-mail: hvac@wozair.com</tspan><tspan
       id="tspan3490"
       sodipodi:role="line"
       y="-39.560852"
       x="55.740002 59.15065 64.029625 65.636795 68.744209 70.965042 76.442513 78.855667 84.317177 90.959732 92.566902 97.445877 102.82758 105.04842 106.65559 109.763 111.98384 114.70023 119.5792 124.77737 126.99821 132.17244 137.41051 142.86404 147.12297 149.53612 151.1433 156.52501 161.40398 164.12038 166.3412 171.57928"
       style="font-size:7.98000002px;font-variant:normal;font-weight:normal;font-stretch:normal;writing-mode:lr-tb;fill:#000000;fill-opacity:1;fill-rule:nonzero;stroke:none;font-family:Century Gothic;-inkscape-font-specification:CenturyGothic">This drawing is the copyright of</tspan></text>
<text
     y="-252.38029"
     x="571.67987"
     id="text3492"
     transform="scale(1,-1)"><tspan
       id="tspan3494"
       y="-252.38029"
       x="571.67987"
       style="font-size:6.96000004px;font-variant:normal;font-weight:normal;font-stretch:normal;writing-mode:lr-tb;fill:#000000;fill-opacity:1;fill-rule:nonzero;stroke:none;font-family:Century Gothic;-inkscape-font-specification:CenturyGothic">E</tspan></text>
<g
     inkscape:label="Layer 1"
     id="layer1"
     transform="matrix(0.19656201,0,0,-0.19656201,183.37332,156.70224)"><path
       inkscape:connector-curvature="0"
       style="fill:#000000;fill-opacity:1"
       d="m 150.43207,665.82982 c 1.68571,-25.7228 12.74391,-50.0984 31.0175,-68.372 8.58029,-8.5803 15.9708,-13.9112 29.52622,-21.298 24.48839,-13.3445 34.78215,-23.5703 42.07715,-41.7992 2.90002,-7.2466 7.02679,-25.0403 7.05257,-30.409 0.0272,-5.6599 1.00226,-7.343 4.25417,-7.343 l 3.03456,0 -0.60638,21.75 c -0.89074,31.9495 -3.5043,46.5462 -11.24743,62.8168 -7.42009,15.5917 -15.46099,22.4567 -45.03985,38.453 -22.37055,12.098 -29.37239,16.8388 -39.02372,26.4223 -8.96874,8.9057 -12.98756,15.6616 -14.14816,23.7842 -0.72755,5.0918 -0.87074,5.285 -4.15042,5.5987 l -3.39688,0.3249 0.65067,-9.9287 z"
       id="path4441" /><path
       inkscape:connector-curvature="0"
       style="fill:#ffffff;fill-opacity:1"
       d="m 182.09186,628.11172 c 5.225,-3.4688 16.025,-9.7807 24,-14.0265 24.40662,-12.9939 33.11599,-19.6361 40.61646,-30.9766 5.70534,-8.6262 10.01522,-22.6334 11.84605,-38.5 l 0.63464,-5.5 -3.46873,6.3042 c -8.96768,16.298 -17.82676,24.2139 -41.54847,37.125 -6.28103,3.4186 -13.93103,8.1577 -17,10.5313 -8.39459,6.4925 -19.20596,18.1256 -24.6649,26.5395 -4.52549,6.9753 -11.35981,21.8406 -11.39823,24.7924 -0.009,0.7108 2.57068,-1.2445 5.73318,-4.345 3.1625,-3.1006 10.025,-8.4755 15.25,-11.9443 z"
       id="path4439" /><path
       inkscape:connector-curvature="0"
       style="fill:#000000;fill-opacity:1"
       d="m 150.42021,610.35862 c 1.11772,-19.824 6.37363,-35.6576 16.09485,-48.4862 8.98023,-11.8508 19.53092,-19.2447 47.22787,-33.0971 20.56942,-10.2877 24.80419,-13.7562 32.2825,-26.4416 4.30481,-7.3022 4.49368,-7.4721 7.24325,-6.5136 3.67039,1.2795 3.65529,3.2804 -0.1381,18.3005 -4.81212,19.0539 -11.42654,30.8166 -21.7474,38.6742 -2.66292,2.0273 -11.80534,7.3644 -20.3165,11.8602 -20.40522,10.7785 -30.9466,17.8123 -39.55688,26.3946 -9.88029,9.8482 -12.30673,14.3704 -14.92106,27.809 -0.44767,2.3012 -1.04644,2.75 -3.66891,2.75 l -3.13392,0 0.6343,-11.25 z"
       id="path4437" /><path
       inkscape:connector-curvature="0"
       style="fill:#ffffff;fill-opacity:1"
       d="m 181.17005,573.87112 c 4.168,-2.8003 14.518,-8.7944 23,-13.3202 19.09913,-10.1907 22.16141,-12.2735 29.16071,-19.8336 4.20749,-4.5446 6.34962,-8.0117 8.6742,-14.0395 1.69779,-4.4026 3.0869,-8.3881 3.0869,-8.8568 0,-0.4687 -2.03725,1.045 -4.52722,3.3638 -2.98358,2.7785 -11.02384,7.4827 -23.58056,13.7967 -23.19845,11.665 -31.35728,16.927 -40.1322,25.883 -5.03308,5.137 -7.87661,9.2046 -11.22814,16.0616 -2.46848,5.0504 -4.78748,10.5325 -5.15333,12.1825 -0.62038,2.798 -0.20096,2.5574 6.22814,-3.573 3.79132,-3.6152 10.30349,-8.8642 14.4715,-11.6645 z"
       id="path4435" /><path
       inkscape:connector-curvature="0"
       style="fill:#ff0000"
       d="m 157.60864,509.85862 c -0.38346,-0.9625 -8.49101,-22.675 -18.01678,-48.25 -9.52577,-25.575 -17.63332,-47.2875 -18.01678,-48.25 -0.6407,-1.6081 0.27544,-1.75 11.30574,-1.75 l 12.00294,0 3.94578,11.25 c 2.17018,6.1875 6.57188,19.0125 9.78156,28.5 3.20968,9.4875 6.14075,17.25 6.51348,17.25 0.37273,0 5.85468,-12.7125 12.1821,-28.25 l 11.5044,-28.25 4.28689,0 4.28689,0 12.06955,28.75 c 6.63824,15.8125 12.30982,28.7442 12.60349,28.7371 0.29368,-0.01 5.20968,-13.0572 10.92444,-29 l 10.39048,-28.9871 11.34493,0 11.34493,0 -1.85832,4.75 c -1.02208,2.6125 -9.41188,25.1125 -18.64402,50 l -16.78569,45.25 -4.18361,0 -4.1836,0 -13.08687,-29.25 c -7.19777,-16.0875 -13.43333,-29.25 -13.85681,-29.25 -0.42347,0 -6.59724,13.1625 -13.7195,29.25 l -12.94954,29.25 -4.24444,0 c -3.11006,0 -4.43078,-0.4677 -4.94164,-1.75 z"
       id="path4433" /><path
       inkscape:connector-curvature="0"
       style="fill:#ff0000"
       d="m 198.5,243.53125 c -13.04461,0.13427 -25.15028,4.97551 -33.46875,14 -5.74224,6.2296 -8.96227,12.3022 -11.21875,21.125 -3.46236,13.5377 -2.13339,29.99355 3.40625,42.09375 4.94205,10.7948 15.63529,19.5871 27.84375,22.875 11.05131,2.9762 27.15398,1.44405 36.90625,-3.53125 5.37216,-2.7407 13.3698,-10.28735 16.40625,-15.46875 9.13746,-15.5919 9.95684,-41.1578 1.8125,-57.4375 -4.34738,-8.6899 -13.02916,-16.99415 -20.8125,-19.90625 -6.93467,-2.59459 -14.04211,-3.82033 -20.875,-3.75 z m 0.40625,18.65625 c 9.07012,-0.16157 18.09203,5.48145 21.21875,16.625 1.92848,6.873 2.21957,20.76275 0.59375,28.34375 -1.41765,6.6102 -6.39044,13.89065 -11.40625,16.71875 -3.00028,1.6917 -5.62454,2.26925 -10.5,2.28125 -11.92163,0.0287 -18.3562,-5.31195 -21.59375,-17.96875 -2.33842,-9.1418 -1.5703,-24.5367 1.5625,-31.75 4.09844,-9.43669 12.12195,-14.10744 20.125,-14.25 z"
       transform="translate(121.28571,166.43361)"
       id="path4431" /><path
       inkscape:connector-curvature="0"
       style="fill:#ff0000"
       d="m 395.75,243.46875 c -2.99026,-0.0104 -5.99393,0.19342 -8.96875,0.59375 -9.6596,1.3 -18.981,4.00165 -19,5.53125 -0.007,0.587 0.9617,4.72295 2.125,9.15625 l 2.09375,8.03125 5.5625,-1.875 c 3.716,-1.2545 8.61435,-1.90675 14.78125,-1.96875 7.8683,-0.0796 9.961,0.2574 14.0625,2.3125 5.5223,2.767 8.0238,5.8867 8.9375,11.0625 l 0.65625,3.625 -4.84375,-0.90625 c -5.1245,-0.963 -19.65405,0.2663 -26.84375,2.25 -6.3424,1.7499 -15.2974,6.8889 -18.6875,10.75 -5.2186,5.9437 -8.0513,13.42035 -8.1875,21.53125 -0.1592,9.481 1.7658,15.63595 6.625,21.15625 4.2158,4.7894 9.25255,7.8819 15.46875,9.4375 2.0711,0.5182 7.83125,0.8262 12.78125,0.6875 7.3656,-0.2064 10.0897,-0.77325 15,-3.03125 3.3,-1.5175 7.19725,-3.88565 8.65625,-5.28125 2.4928,-2.3843 2.6819,-2.4151 3.25,-0.625 0.3326,1.0477 2.20475,3.45225 4.15625,5.34375 3.3487,3.2456 3.93605,3.4375 10.46875,3.4375 6.2242,0 7.2049,-0.29865 9.6875,-2.78125 2.3492,-2.3491 2.5747,-3.0201 1.5,-4.5 -0.6946,-0.9565 -2.2402,-3.74375 -3.4375,-6.21875 -1.9913,-4.1165 -2.2359,-6.6728 -2.875,-30 -0.8722,-31.8294 -2.6961,-39.70765 -11.0625,-47.71875 -6.47067,-6.1958 -18.94847,-9.95504 -31.90625,-10 z m 10.84375,52.6875 c 2.08361,-0.007 4.00942,0.14027 5.59375,0.4375 l 3.625,0.6875 0,6.6875 c -0.007,8.9141 -1.54215,13.9484 -5.40625,17.8125 -1.7566,1.7567 -4.98205,3.67765 -7.15625,4.28125 -9.7939,2.7191 -18.5794,0.3467 -21.6875,-5.875 -3.7708,-7.5482 -0.4838,-16.8232 7.375,-20.8125 3.78,-1.91888 11.40543,-3.19823 17.65625,-3.21875 z"
       transform="translate(121.28571,166.43361)"
       id="path4427" /><path
       inkscape:connector-curvature="0"
       style="fill:#ff0000"
       d="m 379.12681,505.85862 c 0.031,-3.3397 2.9413,-7.5787 26.6037,-38.75 l 26.56867,-35 -26.10367,-0.2666 -26.1037,-0.2666 0,-9.9834 0,-9.9834 42.99997,0 43,0 -0.052,4.25 c -0.048,3.9515 -1.8335,6.6737 -25.4121,38.75 l -25.3601,34.5 25.4121,0.2669 25.4121,0.2669 0,9.9831 0,9.9831 -43.5,0 -43.49997,0 0.035,-3.75 z"
       id="path4423" /><path
       inkscape:connector-curvature="0"
       style="fill:#ff0000"
       d="m 591.09178,470.10862 0,-39.5 -6.5,0 -6.5,0 0,-9.5 0,-9.5 18,0 18,0 0,49 0,49 -11.5,0 -11.5,0 0,-39.5 z"
       id="path4421" /><path
       inkscape:connector-curvature="0"
       style="fill:#ff0000"
       d="m 641.09178,460.60862 0,-49 11.5,0 11.5,0 0,4.0509 0,4.0509 3.3051,-2.5209 c 6.9712,-5.3172 12.4523,-6.9939 22.6949,-6.9425 6.4369,0.032 10.7187,0.5694 13.2795,1.6659 l 3.7795,1.6183 -4.6449,9.2887 c -2.5548,5.1088 -4.7489,9.4072 -4.876,9.5519 -0.127,0.1447 -1.9507,-0.4554 -4.0525,-1.3336 -4.9059,-2.0499 -13.2524,-2.1226 -17.0344,-0.1486 -4.1928,2.1886 -8.0075,6.4994 -10.3702,11.719 -1.9082,4.2154 -2.0384,6.4768 -2.059,35.75 l -0.022,31.25 -11.5,0 -11.5,0 0,-49 z"
       id="path4419" /><path
       inkscape:connector-curvature="0"
       style="fill:#ff0000"
       d="m 597.11178,398.85712 c -10.4751,-5.2629 -10.3761,-18.351 0.1804,-23.84351 6.1138,-3.181 13.708,-0.1253 17.1528,6.90171 3.218,6.5645 0.069,14.3655 -6.9889,17.3145 -4.3168,1.8037 -6.1435,1.7378 -10.3443,-0.3727 z"
       id="path4417" /><path
       inkscape:connector-curvature="0"
       style="fill:#000000;fill-opacity:1;stroke:#000000;stroke-opacity:1"
       d="m 286.55799,393.20752 c -1.87795,-1.3732 -1.86935,-1.5176 0.43167,-7.25 5.48239,-13.65781 15.08609,-27.07641 24.42507,-34.12731 12.6251,-9.5321 25.0708,-14.7605 57.25583,-24.053 29.71985,-8.5808 26.42125,-6.4321 26.42125,-17.2112 0,-8.1916 -0.1733,-9.0403 -1.75,-8.5695 -0.9625,0.2874 -9.4828,2.7856 -18.9341,5.5516 -35.60494,10.4198 -54.89489,20.5242 -70.63597,37.0002 -10.94579,11.4568 -17.73853,24.2184 -21.31079,40.03691 -1.57106,6.9569 -1.61734,7.0234 -4.88276,7.0234 l -3.29667,0 0.43523,-6.25 c 3.09474,-44.44111 9.96332,-65.67541 27.13011,-83.87311 14.82109,-15.7111 32.68411,-24.5259 75.63645,-37.324 l 17.1085,-5.0977 0.26,-46.2276 0.26,-46.2275 78.48997,0 78.49,0 0,108.5 0,108.49991 -78.5,0 -78.49997,0 0,-14.00001 c 0,-16.1438 0.9224,-15.1396 -11,-11.9747 -4.125,1.095 -16.94995,4.2455 -28.49995,7.001 -37.84467,9.0286 -46.93492,12.70781 -58.6159,23.72371 -3.64501,3.4375 -7.04907,6.25 -7.56457,6.25 -0.5155,0 -1.79953,-0.6305 -2.8534,-1.4011 z"
       id="path4415" /><path
       inkscape:connector-curvature="0"
       style="fill:#999999"
       d="m 546.09178,275.60871 0,-102 -72.5,0 -72.49997,0 0,41.4461 0,41.4462 5.25,-1.8313 c 30.79947,-10.7433 52.75867,-24.5421 59.37617,-37.311 l 1.4252,-2.75 -25.0257,0 -25.0257,0 0,-12.5 0,-12.5 56.5,0 56.5,0 0,12.5 0,12.5 -26.4809,0 -26.481,0 -0.4019,2.25 c -3.8344,21.4653 -6.6861,30.2344 -13.086,40.239 l -3.5088,5.4851 34.7293,0.2629 34.7293,0.263 0.2808,12.25 0.2808,12.25 -27.0308,0 c -22.9325,0 -27.0308,0.2196 -27.0308,1.4484 0,0.7966 -1.1201,4.9943 -2.4893,9.3284 -4.0204,12.7269 -12.2811,24.1225 -23.7194,32.7208 l -5.9607,4.4808 42.8347,0.2608 42.8347,0.2608 0.2808,12.25 0.2808,12.2499 -56.5308,0 -56.5308,0 0,-6 c 0,-3.2999 -0.3623,-5.9999 -0.8052,-5.9999 -0.4428,0 -3.93027,1.0534 -7.74997,2.341 l -6.9448,2.341 -0.2807,12.159 -0.2808,12.15891 72.53077,0 72.5307,0 0,-101.99991 z"
       id="path4413" /><path
       inkscape:connector-curvature="0"
       style="fill:#ffffff;fill-opacity:1"
       d="m 308.09186,371.94131 c 9.14681,-4.457 19.27707,-7.5305 43.97727,-13.3425 54.68438,-12.8674 76.72445,-20.7015 93.42315,-33.2071 10.3242,-7.7316 19.6138,-20.8423 21.9988,-31.0472 0.6181,-2.6449 0.3754,-2.5451 -5.6266,2.3126 -7.7682,6.2872 -31.7319,18.2038 -49.16307,24.4477 -7.0898,2.5395 -24.2371,7.9624 -38.1052,12.0509 -13.86808,4.0885 -28.21895,8.5644 -31.89081,9.9465 -15.27774,5.7505 -29.04988,14.4276 -35.16156,22.1534 -4.74176,5.9941 -7.87771,10.6699 -6.86907,10.2421 0.5044,-0.214 3.84209,-1.8143 7.41709,-3.5564 z"
       id="path4411" /><path
       inkscape:connector-curvature="0"
       style="fill:#ffffff;fill-opacity:1;stroke:#000000;stroke-opacity:1"
       d="m 300.66341,337.26971 c 8.68809,-8.5759 20.19408,-16.294 33.56158,-22.5127 12.77519,-5.9431 20.48382,-8.6664 42.86682,-15.144 38.13687,-11.0366 54.56957,-18.7636 68.86737,-32.383 9.9886,-9.5146 16.1696,-19.9047 20.4841,-34.4332 l 1.5766,-5.3088 -6.8238,6.3104 c -3.753,3.4706 -10.208,8.2427 -14.3443,10.6046 -16.701,9.5365 -26.378,13.147 -84.9367,31.6902 -36.07025,11.422 -56.57065,26.2068 -67.77248,48.8772 -4.36172,8.8273 -10.04446,27.2148 -10.04945,32.5166 -7.1e-4,0.758 2.16841,-1.942 4.82026,-6 2.65185,-4.0581 7.93935,-10.4559 11.75,-14.2173 z"
       id="path4409" /><path
       inkscape:connector-curvature="0"
       style="fill:#ffffff;fill-opacity:1"
       d="m 523.09178,348.60871 0,-6 -46.3507,0 c -31.075,0 -47.3887,0.3618 -49.5,1.0978 -2.9548,1.03 -3.1493,1.4006 -3.1493,6 l 0,4.9021 49.5,0 49.5,0 0,-5.9999 z"
       id="path4407" /><path
       inkscape:connector-curvature="0"
       style="fill:#999999;fill-opacity:1"
       d="m 422.59178,309.63911 c 11.178,-4.4769 26.1832,-12.3176 33.1323,-17.3127 l 5.8677,-4.2177 -15.7284,-0.2753 c -15.6003,-0.273 -15.7754,-0.2517 -21.5,2.6172 -3.1743,1.5909 -9.7091,4.3797 -14.52157,6.1972 l -8.75,3.3046 0,8.7686 0,8.7685 6.75,-2.3231 c 3.7125,-1.2777 10.34997,-3.765 14.74997,-5.5273 z"
       id="path4405" /><path
       inkscape:connector-curvature="0"
       style="fill:#ffffff;fill-opacity:1"
       d="m 468.56618,278.65831 c 0.8391,-1.6227 1.5256,-3.6477 1.5256,-4.5 0,-1.1114 1.0141,-1.5496 3.586,-1.5496 l 3.586,0 -0.336,4.25 -0.336,4.25 23.25,0.2684 23.25,0.2684 0,-6.0184 0,-6.0184 -34.1386,0 -34.1387,0 -6.8613,5.6134 c -3.7738,3.0874 -6.8614,5.7874 -6.8614,6 0,0.2126 5.8385,0.3866 12.9744,0.3866 l 12.9743,0 1.5257,-2.9504 z"
       id="path4403" /><path
       inkscape:connector-curvature="0"
       style="fill:#ffffff;fill-opacity:1"
       d="m 469.90518,204.85871 c 0.2869,-2.9755 0.6037,-3.25 3.75,-3.25 3.2609,0 3.4366,0.1789 3.4366,3.5 l 0,3.5 23,0 23,0 0,-6.5 0,-6.5 -49.5,0 -49.5,0 0,6.5187 0,6.5188 22.75,-0.2688 22.75,-0.2687 0.3134,-3.25 z"
       id="path4399" /></g></g></g></svg>