<?xml version="1.0" encoding="UTF-8" standalone="no"?>
<!-- Created with Inkscape (http://www.inkscape.org/) -->
<svg
    xmlns:dc="http://purl.org/dc/elements/1.1/"
    xmlns:cc="http://creativecommons.org/ns#"
    xmlns:rdf="http://www.w3.org/1999/02/22-rdf-syntax-ns#"
    xmlns:svg="http://www.w3.org/2000/svg"
    xmlns="http://www.w3.org/2000/svg"
    xmlns:xlink="http://www.w3.org/1999/xlink"
    xmlns:sodipodi="http://sodipodi.sourceforge.net/DTD/sodipodi-0.dtd"
    xmlns:inkscape="http://www.inkscape.org/namespaces/inkscape"
    width="177.16536"
    height="283.46457"
    id="svg2"
    sodipodi:version="0.32"
    inkscape:version="0.48.3.1 r9886"
    version="1.0"
    sodipodi:docname="tag_plate_eng2.svg"
    inkscape:output_extension="org.inkscape.output.svg.inkscape"
    inkscape:export-filename="C:\Documents and Settings\Anoj\My Documents\My Dropbox\Prog\C++\Project_Zelia\tag_plate_eng3.png"
    inkscape:export-xdpi="800"
    inkscape:export-ydpi="800">
  <defs
      id="defs4">
    <marker
	inkscape:stockid="Arrow2Lend"
	orient="auto"
	refY="0.0"
	refX="0.0"
	id="Arrow2Lend"
	style="overflow:visible;">
      <path
          id="path3666"
          style="font-size:12.0;fill-rule:evenodd;stroke-width:0.62500000;stroke-linejoin:round;"
          d="M 8.7185878,4.0337352 L -2.2072895,0.016013256 L 8.7185884,-4.0017078 C 6.9730900,-1.6296469 6.9831476,1.6157441 8.7185878,4.0337352 z "
          transform="scale(1.1) rotate(180) translate(1,0)" />
    </marker>
    <marker
	inkscape:stockid="Arrow2Lstart"
	orient="auto"
	refY="0.0"
	refX="0.0"
	id="Arrow2Lstart"
	style="overflow:visible">
      <path
          id="path3663"
          style="font-size:12.0;fill-rule:evenodd;stroke-width:0.62500000;stroke-linejoin:round"
          d="M 8.7185878,4.0337352 L -2.2072895,0.016013256 L 8.7185884,-4.0017078 C 6.9730900,-1.6296469 6.9831476,1.6157441 8.7185878,4.0337352 z "
          transform="scale(1.1) translate(1,0)" />
    </marker>
    <marker
	inkscape:stockid="Arrow1Lend"
	orient="auto"
	refY="0.0"
	refX="0.0"
	id="Arrow1Lend"
	style="overflow:visible;">
      <path
          id="path3413"
          d="M 0.0,0.0 L 5.0,-5.0 L -12.5,0.0 L 5.0,5.0 L 0.0,0.0 z "
          style="fill-rule:evenodd;stroke:#000000;stroke-width:1.0pt;marker-start:none;"
          transform="scale(0.8) rotate(180) translate(12.5,0)" />
    </marker>
    <marker
	inkscape:stockid="Arrow1Lstart"
	orient="auto"
	refY="0.0"
	refX="0.0"
	id="Arrow1Lstart"
	style="overflow:visible">
      <path
          id="path3410"
          d="M 0.0,0.0 L 5.0,-5.0 L -12.5,0.0 L 5.0,5.0 L 0.0,0.0 z "
          style="fill-rule:evenodd;stroke:#000000;stroke-width:1.0pt;marker-start:none"
          transform="scale(0.8) translate(12.5,0)" />
    </marker>
    <inkscape:perspective
	sodipodi:type="inkscape:persp3d"
	inkscape:vp_x="0 : 526.18109 : 1"
	inkscape:vp_y="0 : 1000 : 0"
	inkscape:vp_z="744.09448 : 526.18109 : 1"
	inkscape:persp3d-origin="372.04724 : 350.78739 : 1"
	id="perspective10" />
    <inkscape:perspective
	sodipodi:type="inkscape:persp3d"
	inkscape:vp_x="0 : 526.18109 : 1"
	inkscape:vp_y="0 : 1000 : 0"
	inkscape:vp_z="744.09448 : 526.18109 : 1"
	inkscape:persp3d-origin="372.04724 : 350.78739 : 1"
	id="perspective2439" />
    <inkscape:perspective
	id="perspective2464"
	inkscape:persp3d-origin="372.04724 : 350.78739 : 1"
	inkscape:vp_z="744.09448 : 526.18109 : 1"
	inkscape:vp_y="0 : 1000 : 0"
	inkscape:vp_x="0 : 526.18109 : 1"
	sodipodi:type="inkscape:persp3d" />
    <inkscape:perspective
	id="perspective3267"
	inkscape:persp3d-origin="372.04724 : 350.78739 : 1"
	inkscape:vp_z="744.09448 : 526.18109 : 1"
	inkscape:vp_y="0 : 1000 : 0"
	inkscape:vp_x="0 : 526.18109 : 1"
	sodipodi:type="inkscape:persp3d" />
    <pattern
	id="pattern4341"
	patternTransform="translate(819.82326,574.23696)"
	height="509.14984"
	width="585.73014"
	patternUnits="userSpaceOnUse">
      <path
          style="fill:#000000"
          d="m 29.011432,499.22114 c 1.68571,-25.7227 12.74391,-50.0983 31.0175,-68.3719 8.58029,-8.58031 15.9708,-13.91131 29.52622,-21.29811 24.488428,-13.3445 34.782128,-23.5702 42.077128,-41.7991 2.9,-7.2467 7.0268,-25.0404 7.0526,-30.4091 0.027,-5.6599 1.0022,-7.3429 4.2542,-7.3429 l 3.0345,0 -0.6064,21.75 c -0.8907,31.9494 -3.5043,46.5461 -11.2474,62.8167 -7.4201,15.59171 -15.461,22.45671 -45.039838,38.45301 -22.37055,12.098 -29.37239,16.8389 -39.02372,26.4223 -8.96874,8.9057 -12.98756,15.6617 -14.14816,23.7842 -0.72755,5.0918 -0.87074,5.285 -4.15042,5.5987 l -3.39688,0.3249 0.65067,-9.9287 z m 31.65979,-37.718 c 5.225,-3.4689 16.025,-9.7808 24,-14.0266 24.406658,-12.9938 33.115958,-19.6361 40.616458,-30.97651 5.7053,-8.6263 10.0152,-22.6335 11.846,-38.5 l 0.6347,-5.5 -3.4687,6.3041 c -8.9677,16.298 -17.8268,24.2139 -41.548508,37.125 -6.28103,3.4186 -13.93103,8.1577 -17,10.53131 -8.39459,6.4925 -19.20596,18.1256 -24.6649,26.5396 -4.52549,6.9752 -11.35981,21.8406 -11.39823,24.7923 -0.009,0.7108 2.57068,-1.2445 5.73318,-4.345 3.1625,-3.1005 10.025,-8.4754 15.25,-11.9442 z m -31.67165,-17.7531 c 1.11772,-19.82411 6.37363,-35.65771 16.09485,-48.48631 8.98023,-11.8508 19.53092,-19.2447 47.22787,-33.0971 20.569388,-10.2876 24.804188,-13.7562 32.282488,-26.4416 4.3048,-7.3022 4.4937,-7.472 7.2433,-6.5135 3.6703,1.2795 3.6552,3.2803 -0.1381,18.3005 -4.8122,19.0539 -11.4266,30.8165 -21.7474,38.6741 -2.663,2.0273 -11.805378,7.3645 -20.316538,11.8603 -20.40522,10.7785 -30.9466,17.8123 -39.55688,26.3945 -9.88029,9.84821 -12.30673,14.37051 -14.92106,27.80911 -0.44767,2.3012 -1.04644,2.75 -3.66891,2.75 l -3.13392,0 0.6343,-11.25 z m 30.74984,-36.48761 c 4.168,-2.8003 14.518,-8.7944 23,-13.3201 19.099128,-10.1908 22.161408,-12.2736 29.160668,-19.8336 4.2075,-4.5446 6.3497,-8.0118 8.6742,-14.0396 1.6978,-4.4025 3.0869,-8.3881 3.0869,-8.8568 0,-0.4686 -2.0372,1.0451 -4.5272,3.3638 -2.9836,2.7785 -11.0238,7.4827 -23.580538,13.7967 -23.19845,11.665 -31.35728,16.927 -40.1322,25.883 -5.03308,5.137 -7.87661,9.2046 -11.22814,16.0617 -2.46848,5.0503 -4.78748,10.5325 -5.15333,12.1825 -0.62038,2.7979 -0.20096,2.5573 6.22814,-3.5731 3.79132,-3.6151 10.30349,-8.8642 14.4715,-11.6645 z m -23.56141,-64.0124 c -0.38346,-0.9625 -8.49101,-22.675 -18.01678,-48.25 -9.5257701,-25.575 -17.6333201,-47.2875 -18.0167801,-48.25 -0.6407,-1.6082 0.27544,-1.75 11.3057401,-1.75 l 12.00294,0 3.94578,11.25 c 2.17018,6.1875 6.57188,19.0125 9.78156,28.5 3.20968,9.4875 6.14075,17.25 6.51348,17.25 0.37273,0 5.85468,-12.7125 12.1821,-28.25 l 11.5044,-28.25 4.28689,0 4.28689,0 12.06955,28.75 c 6.63824,15.8125 12.309818,28.7441 12.603488,28.737 0.29368,-0.01 5.20968,-13.0571 10.92442,-29 l 10.3905,-28.987 11.3449,0 11.345,0 -1.8584,4.75 c -1.022,2.6125 -9.4118,25.1125 -18.644,50 l -16.7857,45.25 -4.18358,0 -4.183598,0 -13.08687,-29.25 c -7.19777,-16.0875 -13.43333,-29.25 -13.85681,-29.25 -0.42347,0 -6.59724,13.1625 -13.7195,29.25 l -12.94954,29.25 -4.24444,0 c -3.11006,0 -4.43078,-0.4677 -4.94164,-1.75 z m 148.747738,0.2084 c -12.20846,-3.2879 -22.91106,-12.0761 -27.85316,-22.871 -5.5396,-12.1002 -6.8727,-28.5536 -3.4104,-42.0913 2.2565,-8.8227 5.485,-14.8983 11.2273,-21.1279 12.6757,-13.7516 34.15676,-17.8083 54.33036,-10.2604 7.7833,2.9121 16.4634,11.2139 20.8107,19.9038 8.1444,16.2796 7.3476,41.851 -1.7898,57.4429 -3.0365,5.1813 -11.0349,12.7168 -16.407,15.4575 -9.7523,4.9752 -25.8567,6.5226 -36.908,3.5464 z m 24.2354,-19.7467 c 5.0158,-2.8281 9.996,-10.1344 11.4137,-16.7447 1.6258,-7.5809 1.3354,-21.448 -0.593,-28.3211 -5.8856,-20.9761 -32.6147,-22.5191 -41.35806,-2.3876 -3.1328,7.2133 -3.8804,22.6063 -1.542,31.748 3.23746,12.6569 9.65776,18.0052 21.57936,17.9764 4.8755,-0.012 7.4998,-0.5793 10.5,-2.271 z m 170.2345,20.2554 c -6.2162,-1.5556 -11.2641,-4.6259 -15.4799,-9.4153 -4.8592,-5.5203 -6.7941,-11.6962 -6.6349,-21.1773 0.1362,-8.1109 2.9776,-15.5683 8.1962,-21.5121 3.3901,-3.8611 12.3417,-9.0218 18.6841,-10.7718 7.1897,-1.9836 21.7158,-3.1877 26.8403,-2.2247 l 4.8402,0.9096 -0.6422,-3.6378 c -0.9137,-5.1758 -3.4296,-8.2807 -8.9519,-11.0476 -4.1015,-2.0551 -6.1683,-2.3962 -14.0366,-2.3165 -6.1669,0.062 -11.071,0.7159 -14.787,1.9705 l -5.5599,1.877 -2.115,-8.0606 c -1.1632,-4.4333 -2.1088,-8.5408 -2.1014,-9.1279 0.019,-1.5295 9.3143,-4.2467 18.9739,-5.5467 15.8657,-2.1352 32.9134,1.7926 40.8773,9.4182 8.3664,8.0111 10.188,15.8664 11.0601,47.6959 0.6392,23.3271 0.8842,25.8834 2.8756,30 1.1973,2.475 2.7452,5.2826 3.4398,6.2392 1.0747,1.4799 0.8514,2.1508 -1.4978,4.5 -2.4826,2.4826 -3.4583,2.7608 -9.6826,2.7608 -6.5326,0 -7.1211,-0.1933 -10.4698,-3.439 -1.9515,-1.8915 -3.8202,-4.2962 -4.1528,-5.344 -0.5681,-1.79 -0.7646,-1.7519 -3.2574,0.6325 -1.459,1.3956 -5.3528,3.779 -8.6528,5.2964 -4.9103,2.258 -7.6345,2.8049 -15,3.0113 -4.95,0.1387 -10.6945,-0.1718 -12.7655,-0.6901 z m 23.7186,-18.0758 c 2.1742,-0.6036 5.3903,-2.5347 7.1469,-4.2913 3.8641,-3.8641 5.387,-8.8906 5.3945,-17.8047 l 0.01,-6.7047 -3.6256,-0.6802 c -6.3373,-1.1888 -18.2165,0.2411 -23.2565,2.7995 -7.8588,3.9893 -11.1372,13.2418 -7.3664,20.7901 3.1081,6.2216 11.9076,8.6104 21.7015,5.8913 z m -145.4182,13.3587 c 0.031,-3.3398 2.9414,-7.5788 26.6037,-38.75 l 26.5688,-35 -26.1037,-0.2666 -26.1037,-0.2666 0,-9.9834 0,-9.9834 43,0 43,0 -0.052,4.25 c -0.048,3.9514 -1.8335,6.6736 -25.4121,38.75 l -25.3601,34.5 25.4121,0.2669 25.4121,0.2668 0,9.9832 0,9.9831 -43.5,0 -43.5,0 0.035,-3.75 z m 211.9651,-35.75 0,-39.5 -6.5,0 -6.5,0 0,-9.5 0,-9.5 18,0 18,0 0,49 0,49 -11.5,0 -11.5,0 0,-39.5 z m 50,-9.5 0,-49 11.5,0 11.5,0 0,4.0509 0,4.0509 3.3051,-2.5209 c 6.9712,-5.3173 12.4523,-6.994 22.6949,-6.9426 6.4369,0.032 10.7187,0.5694 13.2795,1.6659 l 3.7795,1.6184 -4.645,9.2887 c -2.5547,5.1088 -4.7489,9.4071 -4.8759,9.5518 -0.127,0.1447 -1.9507,-0.4554 -4.0525,-1.3336 -4.9059,-2.0498 -13.2524,-2.1226 -17.0344,-0.1485 -4.1928,2.1885 -8.0075,6.4994 -10.3703,11.719 -1.9081,4.2153 -2.0383,6.4767 -2.0589,35.75 l -0.022,31.25 -11.5,0 -11.5,0 0,-49 z m -43.98,-61.7516 c -10.4751,-5.2628 -10.3761,-18.3509 0.1804,-23.8434 6.1138,-3.1811 13.708,-0.1254 17.1528,6.9017 3.2179,6.5645 0.069,14.3654 -6.9889,17.3145 -4.3168,1.8036 -6.1435,1.7378 -10.3443,-0.3728 z m -310.55376,-5.6495 c -1.878,-1.3732 -1.8694,-1.5177 0.4316,-7.25 5.4824,-13.6579 15.08606,-27.0764 24.42506,-34.1274 12.6251,-9.5321 25.0708,-14.7605 57.2558,-24.053 29.7199,-8.5808 26.4213,-6.4321 26.4213,-17.21117 0,-8.19159 -0.1733,-9.04037 -1.75,-8.56954 -0.9625,0.28742 -9.4828,2.78563 -18.9341,5.55157 -35.605,10.41986 -54.8949,20.52424 -70.636,37.00024 -10.94576,11.4568 -17.73846,24.2185 -21.31076,40.0369 -1.571,6.9569 -1.6173,7.0235 -4.8827,7.0235 l -3.2967,0 0.4352,-6.25 c 3.0948,-44.4412 9.9633,-65.6755 27.13006,-83.87319 14.8211,-15.71114 32.6841,-24.52593 75.6365,-37.32403 l 17.1085,-5.09765 0.26,-46.22758 0.26,-46.22758 78.49,0 78.49,0 0,108.5 0,108.50003 -78.5,0 -78.5,0 0,-14 c 0,-16.1439 0.9224,-15.1397 -11,-11.9748 -4.125,1.0951 -16.95,4.2455 -28.5,7.001 -37.8446,9.0287 -46.9349,12.7078 -58.61586,23.7238 -3.645,3.4375 -7.049,6.25 -7.5645,6.25 -0.5155,0 -1.7996,-0.6305 -2.8534,-1.4011 z M 424.67114,109 l 0,-102 -72.5,0 -72.5,0 0,41.44614 0,41.44614 5.25,-1.83128 c 30.7995,-10.74331 52.7587,-24.54208 59.3762,-37.311 l 1.4252,-2.75 -25.0257,0 -25.0257,0 0,-12.5 0,-12.5 56.5,0 56.5,0 0,12.5 0,12.5 -26.4809,0 -26.481,0 -0.4019,2.25 c -3.8344,21.46537 -6.6861,30.23444 -13.086,40.23905 l -3.5088,5.48508 34.7293,0.26294 34.7293,0.26293 0.2808,12.25 0.2808,12.25 -27.0308,0 c -22.9325,0 -27.0308,0.2196 -27.0308,1.44838 0,0.79661 -1.1202,4.99439 -2.4893,9.32841 -4.0204,12.72692 -12.2811,24.12254 -23.7194,32.72084 l -5.9607,4.4808 42.8347,0.2608 42.8347,0.2608 0.2808,12.25 0.2808,12.25 -56.5308,0 -56.5308,0 0,-6 c 0,-3.3 -0.3623,-6 -0.8052,-6 -0.4428,0 -3.9303,1.0534 -7.75,2.341 l -6.9448,2.341 -0.2807,12.159 -0.2808,12.159 72.5308,0 72.5307,0 0,-102.00003 z m -238,96.33273 c 9.1468,-4.4571 19.2771,-7.5305 43.9773,-13.3426 54.6844,-12.8674 76.7245,-20.7015 93.4232,-33.2071 10.3242,-7.73165 19.6138,-20.8423 21.9987,-31.04719 0.6182,-2.64491 0.3754,-2.54514 -5.6266,2.3126 -7.7681,6.28715 -31.7318,18.20375 -49.163,24.44769 -7.0898,2.5395 -24.2371,7.9624 -38.1052,12.0509 -13.8681,4.0885 -28.219,8.5644 -31.8908,9.9465 -15.2778,5.7505 -29.0499,14.4276 -35.1616,22.1534 -4.7417,5.9941 -7.87766,10.67 -6.86906,10.2421 0.5044,-0.214 3.84206,-1.8143 7.41706,-3.5563 z m -7.42836,-34.6717 c 8.68806,-8.5759 20.19406,-16.294 33.56156,-22.51269 12.7752,-5.94315 20.4838,-8.66645 42.8668,-15.14399 38.1369,-11.03662 54.5696,-18.76363 68.8674,-32.383 9.9886,-9.51466 16.1696,-19.90472 20.4841,-34.43321 l 1.5766,-5.30877 -6.8238,6.31032 c -3.753,3.47067 -10.208,8.24276 -14.3443,10.60463 -16.701,9.53651 -26.378,13.14704 -84.9367,31.69025 -36.0703,11.422 -56.5707,26.20679 -67.77246,48.87716 -4.3617,8.8273 -10.0445,27.2148 -10.0495,32.5166 -7e-4,0.758 2.1684,-1.942 4.8203,-6 2.6518,-4.0581 7.9393,-10.4559 11.75,-14.2173 z m 222.42836,11.339 0,-6 -46.3507,0 c -31.075,0 -47.3887,0.3618 -49.5,1.0978 -2.9548,1.03 -3.1493,1.4006 -3.1493,6 l 0,4.9022 49.5,0 49.5,0 0,-6 z m -100.5,-38.96956 c 11.1779,-4.47695 26.1831,-12.31767 33.1323,-17.31273 l 5.8677,-4.21774 -15.7284,-0.27528 c -15.6003,-0.27304 -15.7754,-0.25172 -21.5,2.61725 -3.1744,1.59089 -9.7091,4.37961 -14.5216,6.19715 l -8.75,3.30462 0,8.76856 0,8.76855 6.75,-2.32312 c 3.7125,-1.27772 10.35,-3.76499 14.75,-5.52726 z m 45.9744,-30.98081 c 0.8391,-1.62269 1.5256,-3.64769 1.5256,-4.5 0,-1.11145 1.0141,-1.54966 3.586,-1.54966 l 3.586,0 -0.336,4.25 -0.336,4.25 23.25,0.26843 23.25,0.26843 0,-6.01843 0,-6.01843 -34.1386,0 -34.1387,0 -6.8613,5.61346 c -3.7738,3.0874 -6.8614,5.7874 -6.8614,6 0,0.2126 5.8385,0.38654 12.9744,0.38654 l 12.9743,0 1.5257,-2.95034 z m 1.339,-73.79966 c 0.2869,-2.97542 0.6037,-3.25 3.75,-3.25 3.2609,0 3.4366,0.17896 3.4366,3.5 l 0,3.5 23,0 23,0 0,-6.5 0,-6.5 -49.5,0 -49.5,0 0,6.51877 0,6.51878 22.75,-0.26878 22.75,-0.26877 0.3134,-3.25 z"
          id="path4339" />
    </pattern>
    <pattern
	id="pattern3616"
	patternTransform="translate(726.79843,549.24118)"
	height="509.14985"
	width="585.73015"
	patternUnits="userSpaceOnUse">
      <rect
          transform="translate(-857.58385,-561.59885)"
          style="color:#000000;fill:#a9adbc;fill-opacity:1;fill-rule:nonzero;stroke:#ff0000;stroke-width:2.25263309;stroke-linecap:butt;stroke-linejoin:miter;stroke-miterlimit:4;stroke-opacity:1;stroke-dasharray:none;stroke-dashoffset:0;marker:none;visibility:visible;display:inline;overflow:visible;enable-background:accumulate"
          id="rect2832"
          width="665.7757"
          height="591.54291"
          x="817.5611"
          y="520.40234"
          ry="0.94300961"
          clip-path="url(#clipPath3610)" />
    </pattern>
    <clipPath
	id="clipPath3610"
	clipPathUnits="userSpaceOnUse">
      <path
          id="path3612"
          d="m 886.59528,1060.82 c 1.68571,-25.7227 12.74391,-50.0983 31.0175,-68.37189 8.58029,-8.5803 15.9708,-13.9113 29.52622,-21.2981 24.48839,-13.3445 34.78212,-23.5703 42.07712,-41.7992 2.9001,-7.2466 7.0268,-25.04029 7.0526,-30.40904 0.027,-5.6599 1.0023,-7.34292 4.25418,-7.34292 l 3.0345,0 -0.6063,21.74996 c -0.8908,31.9495 -3.50428,46.5462 -11.24748,62.8168 -7.4201,15.5917 -15.46097,22.4567 -45.03983,38.45299 -22.37055,12.098 -29.37239,16.8389 -39.02372,26.4223 -8.96874,8.9057 -12.98756,15.6617 -14.14816,23.7842 -0.72755,5.0918 -0.87074,5.285 -4.15042,5.5987 l -3.39688,0.3249 0.65067,-9.9287 z m 31.65979,-37.718 c 5.225,-3.4689 16.025,-9.7808 24,-14.0266 24.40662,-12.99379 33.11599,-19.63609 40.61645,-30.97649 5.7054,-8.6263 10.0152,-22.6335 11.8461,-38.5001 l 0.6346,-5.5 -3.4687,6.3042 c -8.9677,16.298 -17.82679,24.2139 -41.5485,37.125 -6.28103,3.4186 -13.93103,8.1577 -17,10.5313 -8.39459,6.4925 -19.20596,18.12559 -24.6649,26.53959 -4.52549,6.9752 -11.35981,21.8406 -11.39823,24.7923 -0.009,0.7108 2.57068,-1.2445 5.73318,-4.345 3.1625,-3.1005 10.025,-8.4754 15.25,-11.9442 z m -31.67165,-17.7531 c 1.11772,-19.82409 6.37363,-35.65769 16.09485,-48.48629 8.98023,-11.8508 19.53092,-19.2447 47.22787,-33.0971 20.56942,-10.2877 24.80419,-13.7562 32.28248,-26.44162 4.3048,-7.30222 4.4937,-7.47206 7.2433,-6.51356 3.6704,1.27951 3.6553,3.28036 -0.1381,18.30048 -4.8121,19.0539 -11.42657,30.8166 -21.74743,38.6742 -2.66292,2.0273 -11.80534,7.3644 -20.3165,11.8602 -20.40522,10.7786 -30.9466,17.8124 -39.55688,26.3946 -9.88029,9.8482 -12.30673,14.37049 -14.92106,27.80909 -0.44767,2.3012 -1.04644,2.75 -3.66891,2.75 l -3.13392,0 0.6343,-11.25 z m 30.74984,-36.48759 c 4.168,-2.8003 14.518,-8.7944 23,-13.3202 19.09913,-10.1907 22.16141,-12.2735 29.16071,-19.8336 4.20749,-4.5446 6.34962,-8.0117 8.67425,-14.0395 1.6977,-4.4026 3.0869,-8.3881 3.0869,-8.8568 0,-0.4687 -2.0373,1.045 -4.52727,3.3638 -2.98358,2.7785 -11.02384,7.4827 -23.58056,13.7967 -23.19845,11.665 -31.35728,16.927 -40.1322,25.883 -5.03308,5.137 -7.87661,9.2046 -11.22814,16.0617 -2.46848,5.0503 -4.78748,10.5325 -5.15333,12.1825 -0.62038,2.7979 -0.20096,2.5573 6.22814,-3.5731 3.79132,-3.6151 10.30349,-8.8642 14.4715,-11.6645 z m -23.56141,-64.01246 c -0.38346,-0.9625 -8.49101,-22.675 -18.01678,-48.25 -9.52577,-25.575 -17.63332,-47.2875 -18.01678,-48.25 -0.6407,-1.60819 0.27544,-1.75 11.30574,-1.75 l 12.00294,0 3.94578,11.25 c 2.17018,6.1875 6.57188,19.0125 9.78156,28.5 3.20968,9.4875 6.14075,17.25 6.51348,17.25 0.37273,0 5.85468,-12.7125 12.1821,-28.25 l 11.5044,-28.25 4.28689,0 4.28689,0 12.06955,28.75 c 6.63824,15.8125 12.30982,28.74416 12.60349,28.73702 0.29368,-0.007 5.20968,-13.05713 10.92444,-29 l 10.39047,-28.98702 11.3449,0 11.34498,0 -1.8583,4.75 c -1.02208,2.6125 -9.41188,25.1125 -18.64408,50 l -16.78566,45.24996 -4.18361,0 -4.1836,0 -13.08687,-29.24996 c -7.19777,-16.0875 -13.43333,-29.25 -13.85681,-29.25 -0.42347,0 -6.59724,13.1625 -13.7195,29.25 l -12.94954,29.24996 -4.24444,0 c -3.11006,0 -4.43078,-0.46767 -4.94164,-1.74996 z m 148.74775,0.20841 c -12.2085,-3.28789 -22.9111,-12.07611 -27.8531,-22.87097 -5.5397,-12.10017 -6.8728,-28.55362 -3.4105,-42.09131 2.2565,-8.82274 5.485,-14.89831 11.2273,-21.12791 12.6757,-13.75158 34.1568,-17.80831 54.3304,-10.2604 7.7833,2.91212 16.4634,11.21387 20.8108,19.90376 8.1443,16.27964 7.3475,41.85102 -1.7899,57.44292 -3.0365,5.18131 -11.0348,12.7168 -16.407,15.45748 -9.7523,4.97528 -25.8567,6.52268 -36.908,3.54643 z m 24.2355,-19.74667 c 5.0158,-2.82813 9.996,-10.13444 11.4136,-16.74469 1.6258,-7.58095 1.3355,-21.44805 -0.593,-28.32109 -5.8856,-20.9761 -32.6147,-22.51917 -41.358,-2.3876 -3.1328,7.21327 -3.8805,22.60622 -1.5421,31.74798 3.2376,12.65684 9.6578,18.00515 21.5795,17.97642 4.8754,-0.0118 7.4997,-0.57934 10.5,-2.27102 z m 170.2344,20.25538 c -6.2162,-1.5556 -11.2641,-4.62585 -15.4799,-9.41526 -4.8592,-5.52034 -6.7941,-11.69628 -6.6349,-21.17732 0.1363,-8.11088 2.9776,-15.56835 8.1962,-21.51207 3.3901,-3.8611 12.3417,-9.02189 18.6842,-10.77181 7.1896,-1.98368 21.7158,-3.18773 26.8402,-2.22474 l 4.8402,0.90958 -0.6422,-3.63775 c -0.9137,-5.17579 -3.4296,-8.2807 -8.9519,-11.04767 -4.1015,-2.05508 -6.1683,-2.39615 -14.0366,-2.31648 -6.1668,0.0625 -11.0709,0.71596 -14.7869,1.97048 l -5.56,1.87703 -2.1149,-8.06055 c -1.1632,-4.43331 -2.1089,-8.54088 -2.1015,-9.12794 0.019,-1.52952 9.3143,-4.24673 18.9739,-5.54672 15.8658,-2.13519 32.9134,1.79263 40.8773,9.41824 8.3664,8.01108 10.188,15.86639 11.0602,47.69586 0.6391,23.32715 0.8842,25.88344 2.8755,30 1.1973,2.475 2.7452,5.28264 3.4398,6.2392 1.0747,1.4799 0.8514,2.15082 -1.4978,4.5 -2.4826,2.48259 -3.4583,2.7608 -9.6825,2.7608 -6.5327,0 -7.1212,-0.1933 -10.4699,-3.43899 -1.9515,-1.89144 -3.8202,-4.29623 -4.1527,-5.34396 -0.5682,-1.79006 -0.7647,-1.75191 -3.2575,0.63245 -1.459,1.39559 -5.3527,3.779 -8.6527,5.29647 -4.9104,2.25797 -7.6345,2.80484 -15,3.01125 -4.95,0.13874 -10.6945,-0.17183 -12.7656,-0.6901 z m 23.7186,-18.07577 c 2.1742,-0.60363 5.3903,-2.53473 7.147,-4.29135 3.8641,-3.8641 5.387,-8.89057 5.3944,-17.80469 l 0.01,-6.70468 -3.6256,-0.68016 c -6.3373,-1.18889 -18.2165,0.24103 -23.2565,2.79944 -7.8588,3.9893 -11.1372,13.2418 -7.3664,20.79009 3.1081,6.22164 11.9076,8.61046 21.7016,5.89135 z M 1115.29,900.84885 c 0.031,-3.33978 2.9413,-7.57876 26.6037,-38.75 l 26.5687,-35 -26.1036,-0.2666 -26.1037,-0.26661 0,-9.98339 0,-9.9834 43,0 43,0 -0.052,4.25 c -0.048,3.95144 -1.8336,6.67363 -25.4122,38.75 l -25.3601,34.5 25.4121,0.26688 25.4121,0.26688 0,9.98312 0,9.98312 -43.5,0 -43.5,0 0.035,-3.75 z m 211.9651,-35.75 0,-39.5 -6.5,0 -6.5,0 0,-9.5 0,-9.5 18,0 18,0 0,49 0,49 -11.5,0 -11.5,0 0,-39.5 z m 50,-9.5 0,-49 11.5,0 11.5,0 0,4.05089 0,4.05089 3.305,-2.52089 c 6.9712,-5.31722 12.4523,-6.99392 22.695,-6.94256 6.4368,0.0323 10.7186,0.56943 13.2794,1.66594 l 3.7795,1.61831 -4.6449,9.28871 c -2.5548,5.10879 -4.7489,9.40712 -4.876,9.55184 -0.127,0.14472 -1.9507,-0.45541 -4.0525,-1.33362 -4.9059,-2.04982 -13.2524,-2.12259 -17.0343,-0.14851 -4.1929,2.18855 -8.0076,6.49939 -10.3703,11.719 -1.9082,4.21535 -2.0384,6.47671 -2.059,35.75 l -0.022,31.25 -11.5,0 -11.5,0 0,-49 z M 1333.275,793.8473 c -10.4751,-5.26286 -10.3761,-18.35095 0.1804,-23.84346 6.1138,-3.18103 13.7081,-0.12538 17.1528,6.90169 3.218,6.5645 0.069,14.36544 -6.9889,17.3145 -4.3168,1.80365 -6.1435,1.73782 -10.3443,-0.37273 z m -310.5538,-5.64956 c -1.878,-1.37319 -1.8694,-1.51765 0.4317,-7.25 5.4823,-13.65784 15.086,-27.07641 24.425,-34.12741 12.6251,-9.53204 25.0708,-14.76043 57.2559,-24.05298 29.7198,-8.5808 26.4213,-6.43207 26.4213,-17.21114 0,-8.19159 -0.1734,-9.04037 -1.75,-8.56954 -0.9625,0.28742 -9.4829,2.78563 -18.9342,5.55157 -35.6049,10.41986 -54.8949,20.52425 -70.636,37.00025 -10.9458,11.45683 -17.7385,24.21845 -21.3108,40.03693 -1.571,6.95685 -1.6173,7.02343 -4.8827,7.02343 l -3.2967,0 0.4352,-6.25 c 3.0948,-44.44114 9.9634,-65.67547 27.1302,-83.87316 14.821,-15.71114 32.6841,-24.52593 75.6364,-37.32403 l 17.1086,-5.09765 0.2599,-46.22758 0.26,-46.22758 78.49,0 78.4901,0 0,108.5 0,108.5 -78.5,0 -78.5,0 0,-14 c 0,-16.14384 0.9224,-15.13971 -11,-11.97475 -4.125,1.09504 -16.95,4.24549 -28.5,7.00099 -37.8447,9.02866 -46.935,12.70778 -58.6159,23.72376 -3.6451,3.4375 -7.0491,6.25 -7.5646,6.25 -0.5155,0 -1.7995,-0.6305 -2.8534,-1.40111 z m 259.5339,-117.59889 0,-102 -72.5,0 -72.5,0 0,41.44614 0,41.44614 5.25,-1.83128 c 30.7994,-10.74331 52.7586,-24.54208 59.3761,-37.311 l 1.4252,-2.75 -25.0257,0 -25.0256,0 0,-12.5 0,-12.5 56.5,0 56.5,0 0,12.5 0,12.5 -26.481,0 -26.4809,0 -0.402,2.25 c -3.8344,21.46537 -6.6861,30.23444 -13.086,40.23905 l -3.5088,5.48508 34.7294,0.26294 34.7293,0.26293 0.2807,12.25 0.2808,12.25 -27.0308,0 c -22.9325,0 -27.0307,0.2196 -27.0307,1.44838 0,0.79661 -1.1202,4.99439 -2.4893,9.32841 -4.0205,12.72692 -12.2812,24.12256 -23.7194,32.72085 l -5.9608,4.48076 42.8347,0.2608 42.8348,0.2608 0.2807,12.25 0.2808,12.25 -56.5308,0 -56.5307,0 0,-6 c 0,-3.3 -0.3624,-6 -0.8053,-6 -0.4428,0 -3.9303,1.05346 -7.75,2.34102 l -6.9447,2.34103 -0.2808,12.15897 -0.2808,12.15898 72.5308,0 72.5308,0 0,-102 z m -238,96.3327 c 9.1468,-4.45703 19.277,-7.53052 43.9772,-13.34256 54.6845,-12.86745 76.7245,-20.70155 93.4232,-33.20708 10.3242,-7.73168 19.6138,-20.84233 21.9988,-31.04722 0.6181,-2.64491 0.3754,-2.54514 -5.6266,2.3126 -7.7682,6.28715 -31.7319,18.20375 -49.1631,24.44764 -7.0898,2.53956 -24.2371,7.96249 -38.1052,12.05095 -13.8681,4.08847 -28.2189,8.56437 -31.8908,9.94645 -15.2777,5.75053 -29.0499,14.42764 -35.1616,22.15348 -4.7417,5.99411 -7.8777,10.66993 -6.869,10.24207 0.5044,-0.21397 3.8421,-1.81431 7.4171,-3.55633 z m -7.4285,-34.67169 c 8.6881,-8.57591 20.1941,-16.29398 33.5616,-22.51267 12.7752,-5.94315 20.4838,-8.66645 42.8669,-15.14399 38.1368,-11.03662 54.5695,-18.76363 68.8673,-32.383 9.9887,-9.51466 16.1696,-19.90472 20.4841,-34.43321 l 1.5766,-5.30877 -6.8238,6.31032 c -3.753,3.47067 -10.208,8.24276 -14.3442,10.60463 -16.701,9.53651 -26.3781,13.14704 -84.9368,31.69025 -36.0703,11.422 -56.5707,26.20679 -67.7725,48.8772 -4.3617,8.8273 -10.0445,27.21471 -10.0495,32.51654 -7e-4,0.75806 2.1685,-1.94194 4.8203,-6 2.6519,-4.05807 7.9394,-10.45586 11.75,-14.2173 z m 222.4285,11.33899 0,-6 -46.3508,0 c -31.075,0 -47.3887,0.36181 -49.5,1.09783 -2.9547,1.03002 -3.1492,1.40058 -3.1492,6 l 0,4.90217 49.5,0 49.5,0 0,-6 z m -100.5,-38.96953 c 11.1779,-4.47695 26.1831,-12.31767 33.1322,-17.31273 l 5.8678,-4.21774 -15.7285,-0.27528 c -15.6003,-0.27304 -15.7754,-0.25172 -21.5,2.61725 -3.1743,1.59089 -9.709,4.37961 -14.5215,6.19715 l -8.75,3.30462 0,8.76856 0,8.76855 6.75,-2.32312 c 3.7125,-1.27772 10.35,-3.76499 14.75,-5.52726 z m 45.9743,-30.98081 c 0.8391,-1.62269 1.5257,-3.64769 1.5257,-4.5 0,-1.11145 1.014,-1.54966 3.5859,-1.54966 l 3.586,0 -0.336,4.25 -0.3359,4.25 23.25,0.26843 23.25,0.26843 0,-6.01843 0,-6.01843 -34.1387,0 -34.1387,0 -6.8613,5.61346 c -3.7738,3.0874 -6.8613,5.7874 -6.8613,6 0,0.2126 5.8384,0.38654 12.9743,0.38654 l 12.9743,0 1.5257,-2.95034 z m 1.339,-73.79966 c 0.2869,-2.97542 0.6037,-3.25 3.75,-3.25 3.2609,0 3.4367,0.17896 3.4367,3.5 l 0,3.5 23,0 23,0 0,-6.5 0,-6.5 -49.5,0 -49.5,0 0,6.51877 0,6.51878 22.75,-0.26878 22.75,-0.26877 0.3133,-3.25 z"
          style="fill:#000000" />
    </clipPath>
    <inkscape:perspective
	sodipodi:type="inkscape:persp3d"
	inkscape:vp_x="0 : 0.5 : 1"
	inkscape:vp_y="0 : 1000 : 0"
	inkscape:vp_z="1 : 0.5 : 1"
	inkscape:persp3d-origin="0.5 : 0.33333333 : 1"
	id="perspective2824" />
    <inkscape:perspective
	id="perspective10-4"
	inkscape:persp3d-origin="372.04724 : 350.78739 : 1"
	inkscape:vp_z="744.09448 : 526.18109 : 1"
	inkscape:vp_y="0 : 1000 : 0"
	inkscape:vp_x="0 : 526.18109 : 1"
	sodipodi:type="inkscape:persp3d" />
    <pattern
	patternTransform="translate(678.73978,809.03283)"
	id="pattern4347"
	xlink:href="#pattern4341"
	inkscape:collect="always" />
  </defs>
  <sodipodi:namedview
      id="base"
      pagecolor="#ffffff"
      bordercolor="#666666"
      borderopacity="1.0"
      gridtolerance="10000"
      guidetolerance="10"
      objecttolerance="10"
      inkscape:pageopacity="0.0"
      inkscape:pageshadow="2"
      inkscape:zoom="2.448316"
      inkscape:cx="88.582676"
      inkscape:cy="207.08333"
      inkscape:document-units="px"
      inkscape:current-layer="layer1"
      showgrid="false"
      inkscape:window-width="1362"
      inkscape:window-height="729"
      inkscape:window-x="0"
      inkscape:window-y="37"
      inkscape:window-maximized="0" />
  <metadata
      id="metadata7">
    <rdf:RDF>
      <cc:Work
          rdf:about="">
        <dc:format>image/svg+xml</dc:format>
        <dc:type
            rdf:resource="http://purl.org/dc/dcmitype/StillImage" />
        <dc:title />
      </cc:Work>
    </rdf:RDF>
  </metadata>
  <g
      inkscape:label="Layer 1"
      inkscape:groupmode="layer"
      id="layer1"
      transform="translate(-247.57143,-467.89763)">
    <rect
	style="opacity:1;fill:none;fill-opacity:1;fill-rule:nonzero;stroke:#000000;stroke-width:2;stroke-linejoin:round;stroke-miterlimit:4;stroke-dasharray:none;stroke-opacity:0.58039218"
	id="rect2383"
	width="175.56938"
	height="281.86859"
	x="248.36942"
	y="468.69562"
	rx="5.2528248"
	ry="3.5109293"
	inkscape:export-filename="C:\Netbeans\zelia2\tag_plate_eng.png"
	inkscape:export-xdpi="25.17"
	inkscape:export-ydpi="25.17" />
    <g
	id="g3163">
      <path
          transform="matrix(0.7300037,0,0,0.8241977,244.06062,723.92544)"
          d="m 24.132795,17.8123 c 0,3.279154 -3.001283,5.937433 -6.703554,5.937433 -3.702271,0 -6.703554,-2.658279 -6.703554,-5.937433 0,-3.279154 3.001283,-5.937434 6.703554,-5.937434 3.702271,0 6.703554,2.65828 6.703554,5.937434 z"
          sodipodi:ry="5.9374337"
          sodipodi:rx="6.7035542"
          sodipodi:cy="17.8123"
          sodipodi:cx="17.429241"
          id="path3159"
          style="opacity:1;fill:none;fill-opacity:1;fill-rule:nonzero;stroke:#000000;stroke-width:2;stroke-linejoin:miter;stroke-miterlimit:4;stroke-dasharray:none;stroke-opacity:1"
          sodipodi:type="arc" />
      <path
          sodipodi:type="arc"
          style="opacity:1;fill:none;fill-opacity:1;fill-rule:nonzero;stroke:#000000;stroke-width:2;stroke-linejoin:miter;stroke-miterlimit:4;stroke-dasharray:none;stroke-opacity:1"
          id="path3161"
          sodipodi:cx="17.429241"
          sodipodi:cy="17.8123"
          sodipodi:rx="6.7035542"
          sodipodi:ry="5.9374337"
          d="m 24.132795,17.8123 c 0,3.279154 -3.001283,5.937433 -6.703554,5.937433 -3.702271,0 -6.703554,-2.658279 -6.703554,-5.937433 0,-3.279154 3.001283,-5.937434 6.703554,-5.937434 3.702271,0 6.703554,2.65828 6.703554,5.937434 z"
          transform="matrix(0.7300037,0,0,0.8241977,399.96613,723.92544)" />
    </g>
    <g
	id="g3167"
	transform="translate(0,-258.66142)">
      <path
          sodipodi:type="arc"
          style="opacity:1;fill:none;fill-opacity:1;fill-rule:nonzero;stroke:#000000;stroke-width:2;stroke-linejoin:miter;stroke-miterlimit:4;stroke-dasharray:none;stroke-opacity:1"
          id="path3169"
          sodipodi:cx="17.429241"
          sodipodi:cy="17.8123"
          sodipodi:rx="6.7035542"
          sodipodi:ry="5.9374337"
          d="m 24.132795,17.8123 c 0,3.279154 -3.001283,5.937433 -6.703554,5.937433 -3.702271,0 -6.703554,-2.658279 -6.703554,-5.937433 0,-3.279154 3.001283,-5.937434 6.703554,-5.937434 3.702271,0 6.703554,2.65828 6.703554,5.937434 z"
          transform="matrix(0.7300037,0,0,0.8241977,244.06062,723.92544)" />
      <path
          transform="matrix(0.7300037,0,0,0.8241977,399.96613,723.92544)"
          d="m 24.132795,17.8123 c 0,3.279154 -3.001283,5.937433 -6.703554,5.937433 -3.702271,0 -6.703554,-2.658279 -6.703554,-5.937433 0,-3.279154 3.001283,-5.937434 6.703554,-5.937434 3.702271,0 6.703554,2.65828 6.703554,5.937434 z"
          sodipodi:ry="5.9374337"
          sodipodi:rx="6.7035542"
          sodipodi:cy="17.8123"
          sodipodi:cx="17.429241"
          id="path3171"
          style="opacity:1;fill:none;fill-opacity:1;fill-rule:nonzero;stroke:#000000;stroke-width:2;stroke-linejoin:miter;stroke-miterlimit:4;stroke-dasharray:none;stroke-opacity:1"
          sodipodi:type="arc" />
    </g>
    <rect
	style="opacity:1;fill:none;fill-opacity:1;fill-rule:nonzero;stroke:#000000;stroke-width:1;stroke-linejoin:miter;stroke-miterlimit:4;stroke-dasharray:none;stroke-opacity:1"
	id="rect3173"
	width="161.46744"
	height="236.71088"
	x="255.42039"
	y="492.62912"
	rx="5.2538729"
	ry="3.6267519" />
    <text
	xml:space="preserve"
	style="font-size:28px;font-style:normal;font-weight:normal;fill:#000000;fill-opacity:1;stroke:none;stroke-width:1px;stroke-linecap:butt;stroke-linejoin:miter;stroke-opacity:1;font-family:Bitstream Vera Sans"
	x="312.91275"
	y="484.45673"
	id="text3275"><tspan
			  sodipodi:role="line"
			  id="tspan3277"
			  x="312.91275"
			  y="484.45673"
			  style="font-size:16px">W x H</tspan></text>
    <path
	style="fill:none;fill-rule:evenodd;stroke:#000000;stroke-width:1px;stroke-linecap:butt;stroke-linejoin:miter;stroke-opacity:1"
	d="M 256.23909,558.54767 L 417.1326,558.54767"
	id="path3279" />
    <text
	xml:space="preserve"
	style="font-size:10px;font-style:normal;font-weight:normal;fill:#000000;fill-opacity:1;stroke:none;font-family:Bitstream Vera Sans"
	x="257.26202"
	y="555.52716"
	id="text3281"><tspan
			  sodipodi:role="line"
			  id="tspan3283"
			  x="257.26202"
			  y="555.52716"
			  style="font-size:6px">GILLINGHAM, KENT, ME8 0QN, UK +44 1634 263366</tspan></text>
    <text
	xml:space="preserve"
	style="font-size:10px;font-style:normal;font-weight:normal;fill:#000000;fill-opacity:1;stroke:none;stroke-width:1px;stroke-linecap:butt;stroke-linejoin:miter;stroke-opacity:1;font-family:Bitstream Vera Sans"
	x="258.63702"
	y="574.52264"
	id="text3361"><tspan
			  sodipodi:role="line"
			  id="tspan3363"
			  x="258.63702"
			  y="574.52264"
			  style="font-size:12px">Item</tspan></text>
    <path
	style="fill:none;fill-rule:evenodd;stroke:#000000;stroke-width:1;stroke-linecap:butt;stroke-linejoin:miter;stroke-opacity:1;stroke-miterlimit:4;stroke-dasharray:none"
	d="M 317.1037,578.74972 L 409.62129,578.74972"
	id="path3365" />
    <path
	id="path3367"
	d="M 317.16511,596.81113 L 409.55988,596.81113"
	style="fill:none;fill-rule:evenodd;stroke:#000000;stroke-width:1;stroke-linecap:butt;stroke-linejoin:miter;stroke-opacity:1;stroke-miterlimit:4;stroke-dasharray:none" />
    <path
	style="fill:none;fill-rule:evenodd;stroke:#000000;stroke-width:1;stroke-linecap:butt;stroke-linejoin:miter;stroke-opacity:1;stroke-miterlimit:4;stroke-dasharray:none"
	d="M 317.16511,616.81539 L 409.55988,616.81539"
	id="path3369" />
    <path
	id="path3371"
	d="M 317.16511,636.81964 L 409.55988,636.81964"
	style="fill:none;fill-rule:evenodd;stroke:#000000;stroke-width:1;stroke-linecap:butt;stroke-linejoin:miter;stroke-opacity:1;stroke-miterlimit:4;stroke-dasharray:none" />
    <path
	style="fill:none;fill-rule:evenodd;stroke:#000000;stroke-width:1;stroke-linecap:butt;stroke-linejoin:miter;stroke-opacity:1;stroke-miterlimit:4;stroke-dasharray:none"
	d="M 317.16511,656.82389 L 409.55988,656.82389"
	id="path3373" />
    <path
	id="path3375"
	d="M 317.16511,676.82815 L 409.55988,676.82815"
	style="fill:none;fill-rule:evenodd;stroke:#000000;stroke-width:1;stroke-linecap:butt;stroke-linejoin:miter;stroke-opacity:1;stroke-miterlimit:4;stroke-dasharray:none" />
    <path
	style="fill:none;fill-rule:evenodd;stroke:#000000;stroke-width:1;stroke-linecap:butt;stroke-linejoin:miter;stroke-opacity:1;stroke-miterlimit:4;stroke-dasharray:none"
	d="M 317.16511,696.82815 L 409.55988,696.82815"
	id="path3377" />
    <text
	id="text3379"
	y="594.52264"
	x="258.63702"
	style="font-size:10px;font-style:normal;font-weight:normal;fill:#000000;fill-opacity:1;stroke:none;stroke-width:1px;stroke-linecap:butt;stroke-linejoin:miter;stroke-opacity:1;font-family:Bitstream Vera Sans"
	xml:space="preserve"><tspan
				 style="font-size:12px"
				 y="594.52264"
				 x="258.63702"
				 id="tspan3381"
				 sodipodi:role="line">Job / Yom</tspan></text>
    <text
	xml:space="preserve"
	style="font-size:10px;font-style:normal;font-weight:normal;fill:#000000;fill-opacity:1;stroke:none;stroke-width:1px;stroke-linecap:butt;stroke-linejoin:miter;stroke-opacity:1;font-family:Bitstream Vera Sans"
	x="258.63702"
	y="614.52264"
	id="text3383"><tspan
			  sodipodi:role="line"
			  id="tspan3385"
			  x="258.63702"
			  y="614.52264"
			  style="font-size:12px">PO No</tspan></text>
    <text
	id="text3387"
	y="634.52264"
	x="258.63702"
	style="font-size:10px;font-style:normal;font-weight:normal;fill:#000000;fill-opacity:1;stroke:none;stroke-width:1px;stroke-linecap:butt;stroke-linejoin:miter;stroke-opacity:1;font-family:Bitstream Vera Sans"
	xml:space="preserve"><tspan
				 style="font-size:12px"
				 y="634.52264"
				 x="258.63702"
				 id="tspan3389"
				 sodipodi:role="line">Tag No</tspan></text>
    <text
	xml:space="preserve"
	style="font-size:10px;font-style:normal;font-weight:normal;fill:#000000;fill-opacity:1;stroke:none;stroke-width:1px;stroke-linecap:butt;stroke-linejoin:miter;stroke-opacity:1;font-family:Bitstream Vera Sans"
	x="258.63702"
	y="654.52264"
	id="text3391"><tspan
			  sodipodi:role="line"
			  id="tspan3393"
			  x="258.63702"
			  y="654.52264"
			  style="font-size:12px">Weight</tspan></text>
    <text
	id="text3395"
	y="674.52264"
	x="258.63702"
	style="font-size:10px;font-style:normal;font-weight:normal;fill:#000000;fill-opacity:1;stroke:none;stroke-width:1px;stroke-linecap:butt;stroke-linejoin:miter;stroke-opacity:1;font-family:Bitstream Vera Sans"
	xml:space="preserve"><tspan
				 style="font-size:12px"
				 y="674.52264"
				 x="258.63702"
				 id="tspan3397"
				 sodipodi:role="line">Supply</tspan></text>
    <text
	xml:space="preserve"
	style="font-size:10px;font-style:normal;font-weight:normal;fill:#000000;fill-opacity:1;stroke:none;stroke-width:1px;stroke-linecap:butt;stroke-linejoin:miter;stroke-opacity:1;font-family:Bitstream Vera Sans"
	x="258.63702"
	y="714.52264"
	id="text3399"><tspan
			  sodipodi:role="line"
			  id="tspan3401"
			  x="258.63702"
			  y="714.52264"
			  style="font-size:12px">Airflow</tspan></text>
    <path
	id="path3403"
	d="M 317.16511,716.82815 L 409.55988,716.82815"
	style="fill:none;fill-rule:evenodd;stroke:#000000;stroke-width:1;stroke-linecap:butt;stroke-linejoin:miter;stroke-opacity:1;stroke-miterlimit:4;stroke-dasharray:none" />
    <path
	style="fill:none;fill-rule:evenodd;stroke:#000000;stroke-width:1.149;stroke-linecap:butt;stroke-linejoin:miter;marker-start:url(#Arrow2Lstart);marker-end:url(#Arrow2Lend);stroke-opacity:1;stroke-miterlimit:4;stroke-dasharray:none"
	d="M 331.80378,707.55406 L 398.51959,707.55406"
	id="path3405" />
    <g
	transform="matrix(0.10407541,0,0,0.10407541,293.03716,476.90052)"
	id="layer1-4"
	inkscape:label="Layer 1">
      <path
          id="path4441"
          d="m 150.43207,665.82982 c 1.68571,-25.7228 12.74391,-50.0984 31.0175,-68.372 8.58029,-8.5803 15.9708,-13.9112 29.52622,-21.298 24.48839,-13.3445 34.78215,-23.5703 42.07715,-41.7992 2.90002,-7.2466 7.02679,-25.0403 7.05257,-30.409 0.0272,-5.6599 1.00226,-7.343 4.25417,-7.343 l 3.03456,0 -0.60638,21.75 c -0.89074,31.9495 -3.5043,46.5462 -11.24743,62.8168 -7.42009,15.5917 -15.46099,22.4567 -45.03985,38.453 -22.37055,12.098 -29.37239,16.8388 -39.02372,26.4223 -8.96874,8.9057 -12.98756,15.6616 -14.14816,23.7842 -0.72755,5.0918 -0.87074,5.285 -4.15042,5.5987 l -3.39688,0.3249 0.65067,-9.9287 z"
          style="fill:#000000;fill-opacity:1" />
      <path
          id="path4439"
          d="m 182.09186,628.11172 c 5.225,-3.4688 16.025,-9.7807 24,-14.0265 24.40662,-12.9939 33.11599,-19.6361 40.61646,-30.9766 5.70534,-8.6262 10.01522,-22.6334 11.84605,-38.5 l 0.63464,-5.5 -3.46873,6.3042 c -8.96768,16.298 -17.82676,24.2139 -41.54847,37.125 -6.28103,3.4186 -13.93103,8.1577 -17,10.5313 -8.39459,6.4925 -19.20596,18.1256 -24.6649,26.5395 -4.52549,6.9753 -11.35981,21.8406 -11.39823,24.7924 -0.009,0.7108 2.57068,-1.2445 5.73318,-4.345 3.1625,-3.1006 10.025,-8.4755 15.25,-11.9443 z"
          style="fill:#ffffff;fill-opacity:1" />
      <path
          id="path4437"
          d="m 150.42021,610.35862 c 1.11772,-19.824 6.37363,-35.6576 16.09485,-48.4862 8.98023,-11.8508 19.53092,-19.2447 47.22787,-33.0971 20.56942,-10.2877 24.80419,-13.7562 32.2825,-26.4416 4.30481,-7.3022 4.49368,-7.4721 7.24325,-6.5136 3.67039,1.2795 3.65529,3.2804 -0.1381,18.3005 -4.81212,19.0539 -11.42654,30.8166 -21.7474,38.6742 -2.66292,2.0273 -11.80534,7.3644 -20.3165,11.8602 -20.40522,10.7785 -30.9466,17.8123 -39.55688,26.3946 -9.88029,9.8482 -12.30673,14.3704 -14.92106,27.809 -0.44767,2.3012 -1.04644,2.75 -3.66891,2.75 l -3.13392,0 0.6343,-11.25 z"
          style="fill:#000000;fill-opacity:1" />
      <path
          id="path4435"
          d="m 181.17005,573.87112 c 4.168,-2.8003 14.518,-8.7944 23,-13.3202 19.09913,-10.1907 22.16141,-12.2735 29.16071,-19.8336 4.20749,-4.5446 6.34962,-8.0117 8.6742,-14.0395 1.69779,-4.4026 3.0869,-8.3881 3.0869,-8.8568 0,-0.4687 -2.03725,1.045 -4.52722,3.3638 -2.98358,2.7785 -11.02384,7.4827 -23.58056,13.7967 -23.19845,11.665 -31.35728,16.927 -40.1322,25.883 -5.03308,5.137 -7.87661,9.2046 -11.22814,16.0616 -2.46848,5.0504 -4.78748,10.5325 -5.15333,12.1825 -0.62038,2.798 -0.20096,2.5574 6.22814,-3.573 3.79132,-3.6152 10.30349,-8.8642 14.4715,-11.6645 z"
          style="fill:#ffffff;fill-opacity:1" />
      <path
          id="path4433"
          d="m 157.60864,509.85862 c -0.38346,-0.9625 -8.49101,-22.675 -18.01678,-48.25 -9.52577,-25.575 -17.63332,-47.2875 -18.01678,-48.25 -0.6407,-1.6081 0.27544,-1.75 11.30574,-1.75 l 12.00294,0 3.94578,11.25 c 2.17018,6.1875 6.57188,19.0125 9.78156,28.5 3.20968,9.4875 6.14075,17.25 6.51348,17.25 0.37273,0 5.85468,-12.7125 12.1821,-28.25 l 11.5044,-28.25 4.28689,0 4.28689,0 12.06955,28.75 c 6.63824,15.8125 12.30982,28.7442 12.60349,28.7371 0.29368,-0.01 5.20968,-13.0572 10.92444,-29 l 10.39048,-28.9871 11.34493,0 11.34493,0 -1.85832,4.75 c -1.02208,2.6125 -9.41188,25.1125 -18.64402,50 l -16.78569,45.25 -4.18361,0 -4.1836,0 -13.08687,-29.25 c -7.19777,-16.0875 -13.43333,-29.25 -13.85681,-29.25 -0.42347,0 -6.59724,13.1625 -13.7195,29.25 l -12.94954,29.25 -4.24444,0 c -3.11006,0 -4.43078,-0.4677 -4.94164,-1.75 z"
          style="fill:#ff0000" />
      <path
          id="path4431"
          d="m 306.35641,510.06712 c -12.20846,-3.2879 -22.9111,-12.0762 -27.85315,-22.871 -5.53964,-12.1002 -6.87277,-28.5536 -3.41041,-42.0913 2.25648,-8.8228 5.485,-14.8983 11.22724,-21.1279 12.67576,-13.7516 34.1568,-17.8083 54.33039,-10.2604 7.78334,2.9121 16.46341,11.2138 20.81079,19.9037 8.14434,16.2797 7.34758,41.851 -1.78988,57.4429 -3.03645,5.1814 -11.03483,12.7168 -16.40699,15.4575 -9.75227,4.9753 -25.85668,6.5227 -36.90799,3.5465 z"
          style="fill:#ff0000" />
      <path
          id="path4429"
          d="m 330.59186,490.32042 c 5.01581,-2.8281 9.996,-10.1345 11.41365,-16.7447 1.62582,-7.581 1.33545,-21.4481 -0.59303,-28.3211 -5.88559,-20.9761 -32.61468,-22.5192 -41.35802,-2.3876 -3.1328,7.2133 -3.88046,22.6062 -1.54204,31.748 3.23755,12.6568 9.65781,18.0051 21.57944,17.9764 4.87546,-0.012 7.49972,-0.5793 10.5,-2.271 z"
          style="fill:#ffffff;fill-opacity:1" />
      <path
          id="path4427"
          d="m 500.82628,510.57582 c -6.2162,-1.5556 -11.2641,-4.6259 -15.4799,-9.4153 -4.8592,-5.5203 -6.7941,-11.6963 -6.6349,-21.1773 0.1362,-8.1109 2.9776,-15.5684 8.1962,-21.5121 3.3901,-3.8611 12.3417,-9.0219 18.6841,-10.7718 7.1897,-1.9837 21.7158,-3.1877 26.8403,-2.2247 l 4.8402,0.9095 -0.6422,-3.6377 c -0.9137,-5.1758 -3.4296,-8.2807 -8.9519,-11.0477 -4.1015,-2.0551 -6.1683,-2.3961 -14.0366,-2.3165 -6.1669,0.062 -11.0709,0.716 -14.7869,1.9705 l -5.56,1.8771 -2.1149,-8.0606 c -1.1633,-4.4333 -2.1089,-8.5409 -2.1015,-9.1279 0.019,-1.5296 9.3143,-4.2468 18.9739,-5.5468 15.8657,-2.1351 32.9134,1.7927 40.8773,9.4183 8.3664,8.0111 10.188,15.8664 11.0602,47.6958 0.6391,23.3272 0.8842,25.8835 2.8755,30 1.1973,2.475 2.7452,5.2827 3.4398,6.2392 1.0747,1.4799 0.8514,2.1509 -1.4978,4.5 -2.4826,2.4826 -3.4583,2.7608 -9.6825,2.7608 -6.5327,0 -7.1212,-0.1933 -10.4699,-3.4389 -1.9515,-1.8915 -3.8202,-4.2963 -4.1528,-5.344 -0.5681,-1.7901 -0.7646,-1.7519 -3.2574,0.6324 -1.459,1.3956 -5.3528,3.779 -8.6528,5.2965 -4.9103,2.258 -7.6344,2.8049 -15,3.0113 -4.95,0.1387 -10.6944,-0.1719 -12.7655,-0.6901 z"
          style="fill:#ff0000" />
      <path
          id="path4425"
          d="m 524.54488,492.50002 c 2.1742,-0.6036 5.3903,-2.5347 7.1469,-4.2914 3.8641,-3.8641 5.3871,-8.8905 5.3945,-17.8046 l 0.01,-6.7047 -3.6256,-0.6802 c -6.3373,-1.1889 -18.2165,0.241 -23.2565,2.7995 -7.8588,3.9893 -11.1372,13.2418 -7.3664,20.79 3.1081,6.2217 11.9076,8.6105 21.7015,5.8914 z"
          style="fill:#ffffff;fill-opacity:1" />
      <path
          id="path4423"
          d="m 379.12681,505.85862 c 0.031,-3.3397 2.9413,-7.5787 26.6037,-38.75 l 26.56867,-35 -26.10367,-0.2666 -26.1037,-0.2666 0,-9.9834 0,-9.9834 42.99997,0 43,0 -0.052,4.25 c -0.048,3.9515 -1.8335,6.6737 -25.4121,38.75 l -25.3601,34.5 25.4121,0.2669 25.4121,0.2669 0,9.9831 0,9.9831 -43.5,0 -43.49997,0 0.035,-3.75 z"
          style="fill:#ff0000" />
      <path
          id="path4421"
          d="m 591.09178,470.10862 0,-39.5 -6.5,0 -6.5,0 0,-9.5 0,-9.5 18,0 18,0 0,49 0,49 -11.5,0 -11.5,0 0,-39.5 z"
          style="fill:#ff0000" />
      <path
          id="path4419"
          d="m 641.09178,460.60862 0,-49 11.5,0 11.5,0 0,4.0509 0,4.0509 3.3051,-2.5209 c 6.9712,-5.3172 12.4523,-6.9939 22.6949,-6.9425 6.4369,0.032 10.7187,0.5694 13.2795,1.6659 l 3.7795,1.6183 -4.6449,9.2887 c -2.5548,5.1088 -4.7489,9.4072 -4.876,9.5519 -0.127,0.1447 -1.9507,-0.4554 -4.0525,-1.3336 -4.9059,-2.0499 -13.2524,-2.1226 -17.0344,-0.1486 -4.1928,2.1886 -8.0075,6.4994 -10.3702,11.719 -1.9082,4.2154 -2.0384,6.4768 -2.059,35.75 l -0.022,31.25 -11.5,0 -11.5,0 0,-49 z"
          style="fill:#ff0000" />
      <path
          id="path4417"
          d="m 597.11178,398.85712 c -10.4751,-5.2629 -10.3761,-18.351 0.1804,-23.84351 6.1138,-3.181 13.708,-0.1253 17.1528,6.90171 3.218,6.5645 0.069,14.3655 -6.9889,17.3145 -4.3168,1.8037 -6.1435,1.7378 -10.3443,-0.3727 z"
          style="fill:#ff0000" />
      <path
          id="path4415"
          d="m 286.55799,393.20752 c -1.87795,-1.3732 -1.86935,-1.5176 0.43167,-7.25 5.48239,-13.65781 15.08609,-27.07641 24.42507,-34.12731 12.6251,-9.5321 25.0708,-14.7605 57.25583,-24.053 29.71985,-8.5808 26.42125,-6.4321 26.42125,-17.2112 0,-8.1916 -0.1733,-9.0403 -1.75,-8.5695 -0.9625,0.2874 -9.4828,2.7856 -18.9341,5.5516 -35.60494,10.4198 -54.89489,20.5242 -70.63597,37.0002 -10.94579,11.4568 -17.73853,24.2184 -21.31079,40.03691 -1.57106,6.9569 -1.61734,7.0234 -4.88276,7.0234 l -3.29667,0 0.43523,-6.25 c 3.09474,-44.44111 9.96332,-65.67541 27.13011,-83.87311 14.82109,-15.7111 32.68411,-24.5259 75.63645,-37.324 l 17.1085,-5.0977 0.26,-46.2276 0.26,-46.2275 78.48997,0 78.49,0 0,108.5 0,108.49991 -78.5,0 -78.49997,0 0,-14.00001 c 0,-16.1438 0.9224,-15.1396 -11,-11.9747 -4.125,1.095 -16.94995,4.2455 -28.49995,7.001 -37.84467,9.0286 -46.93492,12.70781 -58.6159,23.72371 -3.64501,3.4375 -7.04907,6.25 -7.56457,6.25 -0.5155,0 -1.79953,-0.6305 -2.8534,-1.4011 z"
          style="fill:#000000;fill-opacity:1;stroke:#000000;stroke-opacity:1" />
      <path
          id="path4413"
          d="m 546.09178,275.60871 0,-102 -72.5,0 -72.49997,0 0,41.4461 0,41.4462 5.25,-1.8313 c 30.79947,-10.7433 52.75867,-24.5421 59.37617,-37.311 l 1.4252,-2.75 -25.0257,0 -25.0257,0 0,-12.5 0,-12.5 56.5,0 56.5,0 0,12.5 0,12.5 -26.4809,0 -26.481,0 -0.4019,2.25 c -3.8344,21.4653 -6.6861,30.2344 -13.086,40.239 l -3.5088,5.4851 34.7293,0.2629 34.7293,0.263 0.2808,12.25 0.2808,12.25 -27.0308,0 c -22.9325,0 -27.0308,0.2196 -27.0308,1.4484 0,0.7966 -1.1201,4.9943 -2.4893,9.3284 -4.0204,12.7269 -12.2811,24.1225 -23.7194,32.7208 l -5.9607,4.4808 42.8347,0.2608 42.8347,0.2608 0.2808,12.25 0.2808,12.2499 -56.5308,0 -56.5308,0 0,-6 c 0,-3.2999 -0.3623,-5.9999 -0.8052,-5.9999 -0.4428,0 -3.93027,1.0534 -7.74997,2.341 l -6.9448,2.341 -0.2807,12.159 -0.2808,12.15891 72.53077,0 72.5307,0 0,-101.99991 z"
          style="fill:#999999" />
      <path
          id="path4411"
          d="m 308.09186,371.94131 c 9.14681,-4.457 19.27707,-7.5305 43.97727,-13.3425 54.68438,-12.8674 76.72445,-20.7015 93.42315,-33.2071 10.3242,-7.7316 19.6138,-20.8423 21.9988,-31.0472 0.6181,-2.6449 0.3754,-2.5451 -5.6266,2.3126 -7.7682,6.2872 -31.7319,18.2038 -49.16307,24.4477 -7.0898,2.5395 -24.2371,7.9624 -38.1052,12.0509 -13.86808,4.0885 -28.21895,8.5644 -31.89081,9.9465 -15.27774,5.7505 -29.04988,14.4276 -35.16156,22.1534 -4.74176,5.9941 -7.87771,10.6699 -6.86907,10.2421 0.5044,-0.214 3.84209,-1.8143 7.41709,-3.5564 z"
          style="fill:#ffffff;fill-opacity:1" />
      <path
          id="path4409"
          d="m 300.66341,337.26971 c 8.68809,-8.5759 20.19408,-16.294 33.56158,-22.5127 12.77519,-5.9431 20.48382,-8.6664 42.86682,-15.144 38.13687,-11.0366 54.56957,-18.7636 68.86737,-32.383 9.9886,-9.5146 16.1696,-19.9047 20.4841,-34.4332 l 1.5766,-5.3088 -6.8238,6.3104 c -3.753,3.4706 -10.208,8.2427 -14.3443,10.6046 -16.701,9.5365 -26.378,13.147 -84.9367,31.6902 -36.07025,11.422 -56.57065,26.2068 -67.77248,48.8772 -4.36172,8.8273 -10.04446,27.2148 -10.04945,32.5166 -7.1e-4,0.758 2.16841,-1.942 4.82026,-6 2.65185,-4.0581 7.93935,-10.4559 11.75,-14.2173 z"
          style="fill:#ffffff;fill-opacity:1;stroke:#000000;stroke-opacity:1" />
      <path
          id="path4407"
          d="m 523.09178,348.60871 0,-6 -46.3507,0 c -31.075,0 -47.3887,0.3618 -49.5,1.0978 -2.9548,1.03 -3.1493,1.4006 -3.1493,6 l 0,4.9021 49.5,0 49.5,0 0,-5.9999 z"
          style="fill:#ffffff;fill-opacity:1" />
      <path
          id="path4405"
          d="m 422.59178,309.63911 c 11.178,-4.4769 26.1832,-12.3176 33.1323,-17.3127 l 5.8677,-4.2177 -15.7284,-0.2753 c -15.6003,-0.273 -15.7754,-0.2517 -21.5,2.6172 -3.1743,1.5909 -9.7091,4.3797 -14.52157,6.1972 l -8.75,3.3046 0,8.7686 0,8.7685 6.75,-2.3231 c 3.7125,-1.2777 10.34997,-3.765 14.74997,-5.5273 z"
          style="fill:#999999;fill-opacity:1" />
      <path
          id="path4403"
          d="m 468.56618,278.65831 c 0.8391,-1.6227 1.5256,-3.6477 1.5256,-4.5 0,-1.1114 1.0141,-1.5496 3.586,-1.5496 l 3.586,0 -0.336,4.25 -0.336,4.25 23.25,0.2684 23.25,0.2684 0,-6.0184 0,-6.0184 -34.1386,0 -34.1387,0 -6.8613,5.6134 c -3.7738,3.0874 -6.8614,5.7874 -6.8614,6 0,0.2126 5.8385,0.3866 12.9744,0.3866 l 12.9743,0 1.5257,-2.9504 z"
          style="fill:#ffffff;fill-opacity:1" />
      <path
          id="path4399"
          d="m 469.90518,204.85871 c 0.2869,-2.9755 0.6037,-3.25 3.75,-3.25 3.2609,0 3.4366,0.1789 3.4366,3.5 l 0,3.5 23,0 23,0 0,-6.5 0,-6.5 -49.5,0 -49.5,0 0,6.5187 0,6.5188 22.75,-0.2688 22.75,-0.2687 0.3134,-3.25 z"
          style="fill:#ffffff;fill-opacity:1" />
    </g>
  </g>
</svg>
